<?xml version="1.0" encoding="UTF-8" standalone="no"?>
<!-- Uploaded to: SVG Repo, www.svgrepo.com, Generator: SVG Repo Mixer Tools -->

<svg
   width="92.647377"
   height="140.38805"
   viewBox="0 0 57.904611 87.742529"
   enable-background="new 0 0 500 500"
   id="Layer_1"
   version="1.1"
   xml:space="preserve"
   sodipodi:docname="arrow.svg"
   inkscape:version="1.2.1 (9c6d41e410, 2022-07-14)"
   xmlns:inkscape="http://www.inkscape.org/namespaces/inkscape"
   xmlns:sodipodi="http://sodipodi.sourceforge.net/DTD/sodipodi-0.dtd"
   xmlns="http://www.w3.org/2000/svg"
   xmlns:svg="http://www.w3.org/2000/svg"><defs
   id="defs49" /><sodipodi:namedview
   id="namedview47"
   pagecolor="#ffffff"
   bordercolor="#000000"
   borderopacity="0.25"
   inkscape:showpageshadow="2"
   inkscape:pageopacity="0.0"
   inkscape:pagecheckerboard="0"
   inkscape:deskcolor="#d1d1d1"
   showgrid="false"
   inkscape:zoom="0.76367532"
   inkscape:cx="-149.2781"
   inkscape:cy="87.078891"
   inkscape:window-width="1920"
   inkscape:window-height="1051"
   inkscape:window-x="-9"
   inkscape:window-y="-9"
   inkscape:window-maximized="1"
   inkscape:current-layer="Layer_1" />

<g
   id="g44"
   transform="matrix(0.10586134,-0.19992809,0.19992809,0.10586134,-50.269382,67.582721)">

<path
   d="M 423.998,165.726 C 420.822,146.575 402.874,140.693 387.426,133.308 358.2,122.403 306.99,97.711 277.034,105.43 c -10.386,1.558 -17.718,19.71 -24.67,27.405 -6.742,9.641 -11.168,21.727 -6.323,33.165 2.156,3.939 1.37,4.687 -2.509,6.241 -19.187,10.914 -38.337,21.884 -57.942,32.055 -20.361,10.563 -40.294,21.952 -60.963,31.922 -13.704,6.61 -24.508,16.288 -32.04,29.495 -10.335,19.63 -24.157,41.485 -14.04,63.901 8.373,21.51 15.773,48.506 34.688,62.853 17.119,9.483 34.572,-2.142 50.395,-9.056 46.001,-21.819 88.851,-49.632 135.115,-70.907 3.23,-0.915 7.283,-4.737 10.44,-2.189 7.538,7.666 12.643,17.36 18.878,26.056 6.554,9.764 18.358,31.367 28.387,12.175 6.381,-11.611 12.064,-23.582 17.797,-35.507 11.971,-20.399 19.475,-43.195 29.589,-64.563 10.138,-26.412 25.134,-53.394 20.162,-82.75 z"
   fill="#3f3756"
   id="path2" />

<path
   d="m 252.86,141.277 c 25.866,-4.22 132.599,33.12 149.899,47.073 8.723,12.258 -6.638,56.731 -8.566,67.561 l 2.867,0.833 c 9.147,-13.185 40.554,-84.537 14.296,-107.667 -14.571,-11.495 -116.052,-50.955 -139.747,-38.096 -5.879,3.385 -22.979,29.993 -18.749,30.296 z"
   fill="#ce7c53"
   id="path4" />

<path
   d="m 80.693,298.577 c 0,0 17,-45.167 31.5,-52 14.5,-6.833 131.751,-76.338 137.786,-74.167 6.035,2.172 10.516,23.872 10.136,27.553 -12.097,10.004 -161.251,93.121 -179.422,98.614 z"
   fill="#ce7c53"
   id="path6" />

<path
   d="m 78.36,308.327 c -1.776,8.581 20.328,90.548 51.002,83.249 50.404,-11.651 135.33,-71.558 178.748,-86 50.33,61.192 33.111,71.106 77.42,-26.999 5.603,-22.863 31.022,-82.812 14.666,-92.197 -12.771,-7.568 -131.194,-55.642 -150.647,-41.292 -5.43,6.154 1.818,25.799 5.439,35.394 3.622,9.595 6.372,16.975 3.122,21.41 -3.25,4.435 -181.071,96.823 -179.75,106.435 z"
   fill="#ce6052"
   id="path8" />

<path
   d="m 78.353,314.521 c 23.266,50.443 52.835,81.343 111.842,33.887 11.665,-10.831 39.237,-10.355 59.784,-22.76 20.547,-12.405 49.881,-36.697 61.381,-27.697 11.5,9 17,30.5 27.25,22.75 34.403,-29.031 56.881,-81.24 67.15,-118.26 2.51,8.149 -39.571,141.905 -57.779,150.384 -5.724,1.992 -32.788,-45.916 -40.121,-46.416 -7.333,-0.5 -154.75,82.917 -178.5,85.167 -38.763,-1.264 -42.988,-57.579 -51.007,-77.055 z"
   fill="#bb4337"
   id="path10" />

<path
   d="m 223.82,189.879 c 19.391,-9.391 25.957,-28.169 34.412,2.878 5.438,10.236 -30.539,25.587 -38.186,30.453 -1.089,-10.697 1.657,-22.621 3.774,-33.331 z"
   fill="#bb5d37"
   id="path12" />

<path
   d="m 259.869,202.442 c -9.376,19.636 -46.926,31.696 -64.97,44.687 -22.321,11.613 -44.371,23.678 -66.566,35.488 -16.999,8.817 -34.23,18.704 -48.22,31.905 -2.574,-15.928 44.081,-32.619 56.252,-41.88 41.068,-23.282 86.285,-40.86 123.504,-70.2 z"
   fill="#d97b6f"
   id="path14" />

<path
   d="m 402.508,190.433 c -10.318,-1.773 -20.471,-7.923 -30.546,-11.613 -16.652,-6.406 -33.677,-11.781 -50.787,-16.826 -17.411,-5.718 -35.289,-9.863 -53.194,-13.652 -5.661,-0.409 -15.486,-2.701 -17.542,4.474 -0.435,0.671 -0.686,3.641 -1.728,2.758 -5.523,-25.867 53.875,-2.561 65.968,-0.144 29.434,10.604 61.029,18.766 87.829,35.003 z"
   fill="#d97b6e"
   id="path16" />

<path
   d="m 274.369,140.5 c -7.203,-0.67 -14.096,-1.627 -21.392,-0.602 11.343,-13.667 20.446,-35.354 41.662,-31.046 2.337,0.245 2.459,0.469 1.114,2.509 -7.08,9.468 -12.416,21.689 -21.384,29.139 z"
   fill="#d9946f"
   id="path18" />

<path
   d="m 416.472,161.706 c 7.993,31.442 -8.914,63.061 -20.283,91.677 4.48,-17.837 18.992,-48.946 8.465,-65.358 3.476,-8.943 8.396,-17.377 11.818,-26.319 z"
   fill="#bb5d37"
   id="path20" />

<path
   d="m 129.048,240.931 c -17.283,13.578 -32.77,32.493 -41.851,53.132 -0.78,0.685 -1.56,1.369 -2.605,2.286 8.117,-22.772 21.045,-45.892 44.456,-55.418 z"
   fill="#d9946e"
   id="path22" />

<path
   d="m 208.166,199.363 c -1.129,10.694 -2.913,21.326 -3.688,32.06 -2.182,1.402 -4.526,2.499 -6.844,3.645 3.257,-10.852 3.955,-22.888 6.837,-33.69 1.19,-0.75 2.391,-1.476 3.695,-2.015 z"
   fill="#bb5d37"
   id="path24" />

<path
   d="m 280.725,141.632 c 5.85,-11.255 13.87,-22.155 22.367,-31.663 0.799,0.137 1.599,0.274 2.398,0.411 -6.11,10.459 -14.517,21.406 -21.456,31.919 -1.102,-0.222 -2.205,-0.444 -3.309,-0.667 z"
   fill="#d9946e"
   id="path26" />

<path
   d="m 298.528,145.88 c 4.543,-8.687 10.538,-16.768 15.659,-25.203 2.172,-2.185 3.76,-8.4 7.578,-6.154 -6.67,10.088 -13.671,19.972 -19.285,30.728 -0.527,2.049 -2.514,0.939 -3.952,0.629 z"
   fill="#d9946e"
   id="path28" />

<path
   d="m 217.356,192.145 c -1.015,11.403 -2.559,22.808 -2.443,34.263 -1.031,0.571 -2.062,1.142 -3.093,1.713 0.64,-11.262 1.99,-22.951 2.204,-34.082 1.031,-0.773 2.174,-1.346 3.332,-1.894 z"
   fill="#bb5d37"
   id="path30" />

<path
   d="m 415.516,158.863 c -5.564,8.242 -7.919,18.22 -12.713,26.922 -0.554,-0.497 -1.108,-0.994 -1.662,-1.491 5.98,-7.808 7.746,-18.855 13.548,-27.154 0.275,0.574 0.551,1.148 0.827,1.723 z"
   fill="#bc5d37"
   id="path32" />

<path
   d="m 222.551,333.551 c -16.521,-1.351 9.436,-17.94 13.556,-8.61 -0.22,5.743 -8.762,8.196 -13.556,8.61 z"
   fill="#bb4337"
   id="path34" />

<path
   d="m 405.553,163.972 c -0.199,2.67 -1.607,-1.161 -0.99,-2.063 0.917,-0.134 0.838,1.468 0.99,2.063 z"
   fill="#433955"
   id="path36" />

<path
   d="m 403.558,165.777 c -0.216,1.295 -1.682,-0.103 -1.591,-0.888 0.129,-1.691 1.491,0.198 1.591,0.888 z"
   fill="#433956"
   id="path38" />

<path
   d="m 247.559,188.464 c -0.279,-2.184 1.482,-2.335 1.437,-0.06 -0.17,2.004 1.267,5.003 0.107,6.558 -1.423,-1.344 -1.082,-4.511 -1.544,-6.498 z"
   fill="#403755"
   id="path40" />

<path
   d="M 423.998,165.726 C 420.822,146.575 402.874,140.693 387.426,133.308 358.2,122.403 306.99,97.711 277.034,105.43 c -10.386,1.558 -17.718,19.71 -24.67,27.405 -6.742,9.641 -11.168,21.727 -6.323,33.165 2.156,3.939 1.37,4.687 -2.509,6.241 -19.187,10.914 -38.337,21.884 -57.942,32.055 -20.361,10.563 -40.294,21.952 -60.963,31.922 -13.704,6.61 -24.508,16.288 -32.04,29.495 -10.335,19.63 -24.157,41.485 -14.04,63.901 8.373,21.51 15.773,48.506 34.688,62.853 17.119,9.483 34.572,-2.142 50.395,-9.056 46.001,-21.819 88.851,-49.632 135.115,-70.907 3.23,-0.915 7.283,-4.737 10.44,-2.189 7.538,7.666 12.643,17.36 18.878,26.056 6.554,9.764 18.358,31.367 28.387,12.175 6.381,-11.611 12.064,-23.582 17.797,-35.507 11.971,-20.399 19.475,-43.195 29.589,-64.563 10.138,-26.412 25.134,-53.394 20.162,-82.75 z M 88.554,287.557 c 8.529,-22.505 24.168,-39.87 46.701,-48.776 27.959,-14.366 81.717,-42.349 105.344,-58.718 3.273,-3.385 9.586,-4.478 11.505,0.958 1.41,6.741 9.378,15.968 1.445,21.174 -29.236,21.662 -149.69,77.31 -168.124,93.487 0.958,-2.978 2.018,-5.563 3.129,-8.125 z m 278.625,25.594 c -2.844,4.657 -16.919,39.893 -21.618,35.962 -10.902,-12.593 -18.633,-27.638 -29.258,-40.4 0,0 0,0 0,0 -6.854,-8.31 -13.53,-5.711 -21.743,-1.252 -33.449,15.003 -110.733,60.777 -147.529,75.711 -11.279,5.259 -27.041,10.373 -35.346,-2.3 C 97.589,361.18 88.163,337.985 82.64,314.521 c 0,0 0,0 0,0 -1.292,-9.532 10.114,-15.203 16.901,-19.642 32.909,-18.853 66.392,-36.595 100.168,-53.841 20.492,-11.705 42.619,-21.735 60.538,-37.255 8.563,-15.25 -9.684,-31.354 -9.741,-47.203 0,0 0,0 0,0 -7.688,-32.347 99.71,13.188 113.706,17.509 11.404,5.829 37.754,9.722 39.463,24.285 0,0 0,0 0,-0.001 -4.046,39.643 -22.154,77.701 -36.496,114.778 z m 48.726,-114.077 c -4.351,17.665 -11.015,34.621 -18.47,51.185 4.258,-17.19 17.943,-45.767 8,-61.761 0,0 0,0 0,0 0,0 0,0 0,0 -13.619,-16.482 -99.839,-41.72 -121.942,-47.22 0,0 0,0 0,0 -9.293,-1.863 -18.615,-3.279 -28.13,-2.176 10.273,-12.377 18.519,-32.022 37.734,-28.12 0,0 0,0 0,0 14.937,0.396 111.861,28.266 121.82,48.329 0,0 0,0 0,0 5.888,12.442 4.176,26.826 0.988,39.763 z"
   fill="#3f3756"
   id="path42" />

</g>

</svg>
