<?xml version="1.0" encoding="UTF-8" standalone="no"?>
<!-- Created with Inkscape (http://www.inkscape.org/) -->

<svg
   version="1.1"
   id="svg342"
   width="183.67999"
   height="142.39999"
   viewBox="0 0 183.67999 142.39999"
   sodipodi:docname="wuerfel.svg"
   inkscape:version="1.2.1 (9c6d41e410, 2022-07-14)"
   xmlns:inkscape="http://www.inkscape.org/namespaces/inkscape"
   xmlns:sodipodi="http://sodipodi.sourceforge.net/DTD/sodipodi-0.dtd"
   xmlns="http://www.w3.org/2000/svg"
   xmlns:svg="http://www.w3.org/2000/svg">
  <defs
     id="defs346" />
  <sodipodi:namedview
     id="namedview344"
     pagecolor="#ffffff"
     bordercolor="#000000"
     borderopacity="0.25"
     inkscape:showpageshadow="2"
     inkscape:pageopacity="0"
     inkscape:pagecheckerboard="0"
     inkscape:deskcolor="#d1d1d1"
     showgrid="false"
     inkscape:zoom="2.1451555"
     inkscape:cx="-33.564"
     inkscape:cy="110.24842"
     inkscape:window-width="1920"
     inkscape:window-height="1051"
     inkscape:window-x="-9"
     inkscape:window-y="-9"
     inkscape:window-maximized="1"
     inkscape:current-layer="g348" />
  <g
     inkscape:groupmode="layer"
     inkscape:label="Image"
     id="g348">
    <g
       id="g302"
       transform="matrix(1.1020067,0,0,1.1020067,-31.162512,-66.951185)">
      <path
         style="fill:#f2ebdd;stroke-width:0.264583"
         d="m 76.924949,187.51123 c 7.100443,-0.43186 10.387682,-1.39195 12.683416,-3.70442 2.787015,-2.80732 2.954988,-7.96544 0.381214,-11.7063 l -0.804291,-1.16899 1.042435,-0.45992 c 0.573338,-0.25296 1.152228,-0.66508 1.286422,-0.91582 0.216445,-0.40443 0.507558,-0.43203 2.578465,-0.2445 3.170132,0.28708 6.24615,-0.089 12.76269,-1.56043 4.91843,-1.11056 5.78043,-1.23125 8.88637,-1.24416 2.73435,-0.0114 4.03631,0.11973 6.35,0.63938 l 2.91041,0.65368 -1.64062,0.13346 c -0.90234,0.0734 -1.78936,0.28228 -1.97115,0.46419 -0.18178,0.1819 -0.22012,0.33072 -0.0852,0.33072 0.13493,0 -0.47958,0.42884 -1.36558,0.95298 -2.11999,1.25413 -3.2416,2.21173 -2.8041,2.39405 0.1845,0.0769 0.52232,0.32667 0.75071,0.55506 0.46055,0.46055 1.93895,0.50089 2.73542,0.0746 0.9757,-0.52218 0.8964,-0.26615 -0.21121,0.68192 -1.65496,1.41659 -2.27026,2.76618 -2.27895,4.99866 -0.0125,3.21091 1.75599,5.70005 5.26972,7.41711 3.22567,1.57629 5.53078,1.8432 15.88844,1.8397 10.44923,-0.004 17.38495,-0.56419 24.70739,-1.99728 2.99575,-0.5863 4.32319,-1.14597 6.06125,-2.55552 l 1.1353,-0.92071 2.17199,0.17915 c 1.58663,0.13087 2.61722,0.38957 3.82402,0.95988 1.88941,0.89291 2.67077,0.95713 8.13755,0.66883 4.92462,-0.25971 5.29059,-0.33085 6.31109,-1.22686 0.9899,-0.86915 2.63442,-4.1916 2.50524,-5.06138 -0.0468,-0.31501 -0.38273,-0.79076 -0.74653,-1.05722 -0.84216,-0.61681 -4.46397,-0.71055 -10.31875,-0.26706 -2.97228,0.22514 -4.5763,0.23274 -5.82773,0.0276 -2.42703,-0.39783 -2.45784,-0.43088 -1.86233,-1.99814 0.27608,-0.72658 0.69949,-2.26876 0.94092,-3.42708 0.74182,-3.5591 0.31465,-5.73215 -2.52776,-12.85881 -1.83196,-4.59323 -2.14162,-5.76475 -4.08135,-15.44097 -1.59621,-7.9626 -3.23276,-14.93614 -4.08678,-17.41426 l -0.53046,-1.53925 0.68908,-1.04128 c 0.379,-0.5727 1.26289,-1.45351 1.96422,-1.95736 1.52148,-1.09308 2.18121,-2.02284 2.18121,-3.07399 0,-0.97816 -0.75685,-1.80048 -3.15197,-3.4246 -1.03023,-0.6986 -2.07657,-1.58063 -2.32519,-1.96007 -0.43014,-0.65648 -0.54778,-1.15262 -1.22724,-5.17565 -0.89648,-5.30801 -3.59943,-10.063883 -6.48067,-11.402815 -1.28407,-0.59672 -3.39129,-0.643326 -5.86968,-0.129823 -0.99178,0.205489 -2.75573,0.452681 -3.9199,0.549315 -1.16417,0.09663 -2.51918,0.300064 -3.01115,0.452067 -1.43486,0.44333 -2.82427,1.881373 -3.20868,3.320984 -0.18462,0.691432 -0.66388,1.971522 -1.06502,2.844642 -0.89804,1.9547 -1.31411,3.87389 -1.31411,6.06152 0,1.34486 -0.12873,1.85955 -0.66146,2.64456 -0.3638,0.53609 -0.66146,1.0172 -0.66146,1.06912 0,0.0519 0.42866,0.34732 0.95258,0.65644 0.52391,0.30912 1.02108,0.82689 1.10482,1.15061 0.0837,0.32372 0.54329,1.34054 1.02124,2.25959 l 0.869,1.671 -0.91549,0.8038 c -0.73227,0.64294 -0.91548,0.99834 -0.91548,1.77586 0,0.53463 0.18415,1.23496 0.40921,1.55629 0.43461,0.62048 2.2369,1.23125 4.48558,1.52009 0.72761,0.0935 1.70435,0.36953 2.17054,0.61347 l 0.84761,0.44354 -0.8268,1.32247 c -1.63575,2.6164 -4.02064,8.7744 -5.78085,14.92673 -0.44059,1.53995 -0.86561,2.97851 -0.94448,3.19679 -0.0831,0.23007 -0.3409,-0.23293 -0.61328,-1.10163 -0.60635,-1.93376 -1.3798,-3.21228 -2.93494,-4.8515 l -1.25507,-1.32291 0.497,-2.38125 c 0.6042,-2.89485 0.64438,-6.10404 0.10247,-8.18458 -0.22189,-0.85189 -0.875,-2.67748 -1.45136,-4.05687 l -1.04793,-2.50798 0.64879,-0.77105 0.64879,-0.77104 -1.27796,-3.6282 c -2.82115,-8.00938 -4.50706,-11.22397 -6.54491,-12.47944 -0.60149,-0.37057 -1.91118,-1.36632 -2.91041,-2.21278 -0.99924,-0.846468 -2.80385,-2.13728 -4.01026,-2.868474 l -2.19348,-1.329447 0.55871,-0.835697 c 1.29068,-1.930527 1.99656,-4.215133 2.95594,-9.566947 0.42727,-2.38343 0.26494,-6.654861 -0.30216,-7.950943 -0.6674,-1.525333 -2.0108,-2.95587 -3.63843,-3.874451 l -1.40482,-0.792828 v -1.510294 c 0,-3.109941 -1.97529,-5.572209 -4.64796,-5.793848 -1.85757,-0.154044 -2.71222,0.221555 -4.21412,1.851995 -0.97946,1.063293 -1.35063,1.300708 -1.87639,1.200203 -0.48231,-0.0922 -0.79976,0.0576 -1.20202,0.56723 -0.81246,1.029309 -0.60483,3.447687 0.38467,4.480498 l 0.7135,0.744732 -0.6894,0.644061 c -0.37916,0.354234 -0.84659,0.946066 -1.03871,1.315184 -0.45202,0.868412 -1.71642,5.986178 -1.71679,6.948787 -2.6e-4,0.836557 0.55223,2.036956 1.17583,2.554505 0.3793,0.314788 0.37796,0.375028 -0.0147,0.662178 -0.39836,0.291285 -0.39893,0.429673 -0.007,1.776804 0.41943,1.442781 1.49998,2.864729 2.17693,2.864729 0.19163,0 0.57337,0.506015 0.84832,1.124479 0.27496,0.618463 1.04839,1.76513 1.71876,2.548149 1.15471,1.348764 1.77425,2.764986 1.38208,3.159313 -0.0982,0.09873 -1.32991,0.240564 -2.73716,0.315179 -1.93686,0.102696 -2.61161,0.05166 -2.77669,-0.210034 -0.78903,-1.250794 -4.769021,2.962357 -6.443751,6.821247 -0.816904,1.8823 -1.214255,3.593 -1.08725,4.68091 0.08842,0.75734 -0.38707,2.53285 -1.934493,7.2236 -1.128448,3.4207 -2.537389,7.34381 -3.130979,8.71802 -1.162296,2.69082 -1.16655,2.92937 -0.08149,4.56901 0.734309,1.10961 0.667504,1.56153 -0.327163,2.21326 -0.948753,0.62165 -1.206436,0.21924 -0.317071,-0.49515 l 0.726543,-0.58361 -1.481929,-2.05052 c -0.815062,-1.12778 -1.589936,-2.05052 -1.721942,-2.05052 -0.501542,0 -6.999513,4.95597 -6.966596,5.31338 0.019,0.20634 0.07854,0.55093 0.132292,0.76576 0.0604,0.24138 -0.129673,0.42529 -0.497573,0.48142 -0.614556,0.0938 -0.857396,-0.54652 -0.330729,-0.87202 0.145521,-0.0899 0.264583,-0.50904 0.264583,-0.93135 0,-0.44794 0.239993,-0.99141 0.576059,-1.3045 0.667065,-0.62147 0.997897,-0.50507 0.453832,0.15968 -0.317199,0.38755 1.249153,-0.69691 4.765161,-3.29916 l 0.900261,-0.6663 -0.598842,-0.48491 c -0.329372,-0.2667 -0.703202,-0.48492 -0.830741,-0.48492 -0.12754,0 -0.973868,0.90403 -1.88073,2.00895 -0.906859,1.10492 -1.693228,1.87577 -1.747486,1.713 -0.05425,-0.16277 0.559602,-1.11065 1.364128,-2.1064 l 1.462776,-1.81045 -0.657162,-0.29942 c -0.361439,-0.16468 -0.778044,-0.29943 -0.925787,-0.29943 -0.147741,0 -0.661617,0.84845 -1.141942,1.88545 -0.480327,1.03699 -0.953659,1.75545 -1.051851,1.59657 -0.09819,-0.15888 0.04882,-0.73944 0.326694,-1.29013 0.277874,-0.55069 0.588055,-1.26915 0.689295,-1.59657 0.166582,-0.53876 0.0964,-0.59532 -0.73878,-0.59532 -0.814927,0 -0.940776,0.0928 -1.076161,0.79375 -0.08432,0.43657 -0.222305,1.15094 -0.306631,1.5875 -0.08432,0.43657 -0.262916,0.79375 -0.396875,0.79375 -0.290517,0 -0.291015,-0.29702 -0.003,-1.78593 0.200757,-1.03777 0.174365,-1.12417 -0.342252,-1.12043 -1.010759,0.007 -1.341253,0.41924 -1.258287,1.56831 0.04608,0.6381 -0.038,1.07347 -0.207299,1.07347 -0.156649,0 -0.284816,-0.41706 -0.284816,-0.9268 v -0.9268 l -0.859895,0.35769 c -0.515393,0.21439 -0.845175,0.5327 -0.823148,0.79451 0.02043,0.24296 -0.155697,0.43726 -0.396875,0.43781 -0.238493,5.3e-4 -0.820576,0.23692 -1.293519,0.52527 -0.472943,0.28836 -0.859896,0.42937 -0.859896,0.31336 0,-0.11602 0.386953,-0.4938 0.859896,-0.83952 0.472943,-0.34572 1.015476,-0.84436 1.205627,-1.10809 0.190153,-0.26373 0.510548,-0.47951 0.711991,-0.47951 0.20144,0 0.422627,-0.0912 0.491522,-0.20269 0.207375,-0.33554 -1.278385,-4.64194 -2.168576,-6.2855 l -0.831273,-1.53478 1.057897,-0.90552 c 1.378569,-1.18001 2.275046,-2.74573 3.330866,-5.81744 0.472474,-1.37458 1.030936,-2.69697 1.241023,-2.93864 0.210087,-0.24166 0.325522,-0.59584 0.256519,-0.78705 -0.069,-0.19121 0.0196,-1.53179 0.196889,-2.97907 0.294296,-2.40244 0.375592,-2.64477 0.93426,-2.78499 0.894853,-0.22459 1.470888,-0.98483 1.626762,-2.146951 0.09673,-0.721218 0.01963,-1.121363 -0.26094,-1.354217 -0.299504,-0.248566 -0.367763,-0.705062 -0.275302,-1.841106 0.09858,-1.211173 0.01521,-1.681512 -0.420524,-2.372905 -0.587795,-0.932649 -1.986401,-1.913231 -2.731116,-1.914822 -0.336648,-7.93e-4 -0.463021,-0.215114 -0.463021,-0.785532 0,-1.085532 -1.273789,-2.454923 -2.957137,-3.17908 -1.655532,-0.712189 -4.106495,-0.663675 -4.948073,0.09794 -0.484952,0.438875 -0.558157,0.440457 -1.191083,0.02574 -1.861942,-1.219991 -6.030106,-0.595188 -7.119866,1.067258 -0.364715,0.556376 -0.867749,0.937477 -1.370026,1.037931 -2.420813,0.484164 -4.20211,3.105097 -4.227589,6.220307 -0.0098,1.197747 0.122801,1.964325 0.417626,2.414452 0.410456,0.626669 0.400569,0.69604 -0.198438,1.392425 -0.91251,1.06086 -0.849074,2.43422 0.169519,3.66995 0.439965,0.53375 1.027917,1.04282 1.306563,1.13125 0.299326,0.095 0.540385,0.45189 0.589129,0.87219 0.05335,0.46001 0.381593,0.89964 0.928912,1.24413 1.176658,0.74061 1.233234,1.05639 0.417486,2.33022 -0.391996,0.61212 -0.737113,1.15223 -0.766923,1.20024 -0.02981,0.048 -0.987261,0.32126 -2.127671,0.60723 -12.50848,3.13664 -18.697644,8.4991 -22.949573,19.88414 -2.540184,6.80165 -3.438417,12.19648 -3.037407,18.24281 0.271049,4.0868 0.816546,6.16558 2.112023,8.04849 0.784427,1.14013 0.784789,1.14248 0.511463,3.32229 -0.352341,2.80997 -0.348508,6.5033 0.0095,9.12141 0.751946,5.49953 4.02142,11.92735 7.257642,14.2686 0.952909,0.68938 1.242825,0.76024 2.910416,0.71132 1.018646,-0.0299 2.745052,0.11819 3.836459,0.32903 3.094564,0.59784 9.768969,1.38537 14.419792,1.70145 3.925541,0.26678 5.637019,0.35113 9.789583,0.48245 0.873125,0.0276 3.527166,-0.0678 5.897867,-0.21195 z m 3.693279,-23.73835 c -0.603433,-0.0631 -0.992188,-0.24325 -0.992188,-0.45974 0,-0.19577 0.718693,-1.59781 1.597094,-3.11564 1.92342,-3.32356 2.127671,-4.20891 1.264798,-5.48246 -1.75161,-2.58528 -7.427928,-4.48562 -11.082179,-3.71014 -1.631471,0.34622 -2.098463,0.23469 -2.098463,-0.50116 0,-0.61453 3.249568,-3.20598 4.025212,-3.21001 0.332748,-0.002 1.25984,-0.18079 2.060205,-0.39793 0.800364,-0.21714 2.764896,-0.50985 4.365625,-0.65047 4.344662,-0.38166 4.649772,-0.52026 7.549044,-3.42939 4.699963,-4.71592 10.091814,-11.88485 12.543147,-16.67717 l 1.514327,-2.96049 1.13478,1.54211 c 1.56601,2.12814 1.85482,3.13695 1.49294,5.21498 -0.56666,3.25403 -0.34263,4.34677 1.03748,5.06045 1.042,0.53884 1.22473,1.40478 0.56805,2.69198 -0.74915,1.46846 -5.3457,5.78567 -8.418731,7.90712 -3.033154,2.09392 -9.187788,8.10157 -10.912102,10.65149 -1.481624,2.19103 -2.407563,4.32236 -2.598867,5.98208 -0.207391,1.79928 -0.276924,1.83449 -3.050172,1.54439 z m 28.109842,-46.02075 c -1.67232,-1.80689 -3.08149,-3.47157 -3.13151,-3.69928 -0.05,-0.2277 0.26428,-0.78838 0.69842,-1.24593 0.43414,-0.45756 0.86811,-1.09372 0.96437,-1.4137 0.0962,-0.31998 0.38573,-0.64866 0.64327,-0.7304 0.25755,-0.0817 0.82421,-0.49662 1.25925,-0.92195 0.43504,-0.42533 1.14096,-0.85496 1.56872,-0.95472 0.42776,-0.0998 1.0687,-0.36369 1.42431,-0.58648 0.48319,-0.30272 1.39604,-0.403 3.6124,-0.39685 1.63121,0.005 3.09643,0.0889 3.25604,0.18759 0.19424,0.12005 0.27085,1.5084 0.2317,4.19864 l -0.0585,4.01928 -0.0806,-3.86436 -0.0806,-3.86436 -2.01744,-0.17053 c -1.10959,-0.0938 -2.5238,-0.17054 -3.14269,-0.17054 h -1.12524 l -0.17672,2.84427 c -0.23413,3.7684 -0.357,3.97414 -0.38248,0.64044 l -0.0209,-2.733 -0.8599,0.18118 c -0.47294,0.0997 -0.97177,0.28648 -1.10852,0.41518 -0.15388,0.14481 0.007,1.34784 0.4219,3.15692 0.36879,1.60762 0.58619,2.97507 0.4831,3.03878 -0.10308,0.0637 -0.46424,-1.13133 -0.80258,-2.65564 -0.33834,-1.5243 -0.68197,-2.77102 -0.76364,-2.77047 -0.33595,0.002 -1.86828,1.06831 -1.86828,1.2998 0,0.23519 3.63032,7.14516 3.90377,7.43046 0.12723,0.13274 -0.11625,-1.28713 -0.37999,-2.21595 -0.0855,-0.30099 -0.0337,-0.42989 0.13169,-0.32769 0.14991,0.0927 0.35812,0.55404 0.46267,1.02532 0.16714,0.75341 0.21601,0.79298 0.40478,0.32769 0.13589,-0.33496 0.19746,0.12426 0.16775,1.25125 -0.0258,0.97923 -0.16999,1.82764 -0.32041,1.88536 -0.15042,0.0577 -1.64175,-1.37342 -3.31406,-3.18031 z m 1.44268,-0.55161 c -2.41654,-4.54887 -2.58233,-4.82865 -2.86127,-4.82865 -0.34657,0 -1.48969,1.07743 -1.48969,1.40408 0,0.25565 5.50217,6.26884 5.7361,6.26884 0.0692,0 -0.55409,-1.27992 -1.38514,-2.84427 z m 2.01993,-2.33715 c 0.0127,-0.30823 0.0754,-0.37092 0.15985,-0.15986 0.0764,0.191 0.067,0.4192 -0.0209,0.50712 -0.0879,0.0879 -0.15045,-0.0683 -0.13896,-0.34726 z m -5.31256,68.92012 c 1.8548,-0.0265 1.66476,-0.0775 -2.91041,-0.78181 -2.69214,-0.41444 -4.984091,-0.75943 -5.093232,-0.76666 -0.109141,-0.007 -0.198438,0.3242 -0.198438,0.73651 0,0.41231 0.0893,0.84332 0.198438,0.9578 0.109141,0.11449 1.508122,0.13488 3.108852,0.0453 1.60073,-0.0896 3.80339,-0.17559 4.89479,-0.19115 z m 4.39631,-0.35554 c 0.0805,-0.20978 0.10653,-0.57925 0.0578,-0.82105 -0.0596,-0.29621 -0.18892,-0.17178 -0.39627,0.38142 -0.17781,0.47439 -0.20223,0.82106 -0.0578,0.82106 0.13745,0 0.31577,-0.17164 0.39627,-0.38143 z m -0.68001,-0.43499 c 0.42,-0.78478 0.20677,-0.83504 -0.35521,-0.0837 -0.26146,0.34955 -0.35494,0.63554 -0.20775,0.63554 0.1472,0 0.40053,-0.24832 0.56296,-0.55183 z m -0.65723,-0.44604 c -0.0887,-0.0887 -0.36677,0.0539 -0.61797,0.31692 -0.43662,0.45714 -0.42952,0.46423 0.16125,0.16125 0.33989,-0.1743 0.54541,-0.38949 0.45672,-0.47817 z m -6.63094,-0.98856 c -2.18281,-0.78294 -4.120527,-1.43019 -4.306029,-1.43834 -0.369559,-0.0162 -0.965681,1.28292 -0.708117,1.54324 0.185433,0.18741 7.009466,1.2699 8.189146,1.29903 0.44901,0.0111 -0.92996,-0.59866 -3.175,-1.40393 z m 7.89928,-0.56555 c 1.92508,-1.4287 2.27906,-1.79778 1.98438,-2.06903 -0.63323,-0.5829 -8.18525,-5.16857 -8.51197,-5.16857 -0.4259,0 -4.811275,3.14441 -4.811275,3.4498 0,0.26659 8.305865,5.52247 8.731255,5.52506 0.14552,8e-4 1.31894,-0.78088 2.60761,-1.73726 z m -4.08487,1.39765 c -0.0606,-0.0528 -1.7057,-1.08271 -3.6557,-2.28869 -3.697773,-2.28689 -3.913128,-2.34043 -4.692405,-1.16678 -0.328252,0.49438 -0.137596,0.59457 3.813875,2.00416 3.92131,1.39883 4.79517,1.67854 4.53423,1.45131 z"
         id="path318"
         sodipodi:nodetypes="csscsssssscsssssssssscsscssssssssssssscsssssssssssssssssscssssscssssscssscccsssscsssscsssssscsscsscssssssssssssscsssscssssscssssscssssssssssscssscsssssssssscsssssssssscsssssssssssssssssssscsssssccsssssscsssscsssssssscssccscsccscccsscssccscsscssscssssccsssssssssssscsssssscssssssssssssssssssssscssssss" />
      <path
         style="fill:#92c0e3;stroke-width:0.264583"
         d="m 67.455207,187.60071 c -6.83576,-0.24898 -16.011568,-1.18149 -20.993799,-2.13354 -2.148626,-0.41058 -2.278878,-0.46986 -1.5875,-0.72242 1.437843,-0.52526 2.5176,-1.2408 4.936201,-3.27117 6.690604,-5.61663 9.522019,-7.73572 12.117248,-9.06879 3.426235,-1.75994 6.134187,-4.24249 6.607948,-6.05792 l 0.31071,-1.19062 2.281159,1.1076 c 2.45192,1.1905 4.686181,1.84892 7.146901,2.10611 1.775806,0.18561 2.559135,-0.3065 0.896297,-0.56308 -2.767483,-0.42703 -6.00189,-1.35735 -8.109096,-2.33244 l -2.347058,-1.08609 0.140989,-1.60042 c 0.08961,-1.01717 0.495313,-2.40563 1.113232,-3.80985 1.160224,-2.63661 1.169715,-4.04716 0.04355,-6.47434 -0.39299,-0.847 -0.582123,-1.45817 -0.420295,-1.35815 0.161829,0.10001 0.978154,0.0367 1.814054,-0.14069 3.654251,-0.77548 9.330569,1.12486 11.082179,3.71014 0.862873,1.27355 0.658622,2.1589 -1.264798,5.48246 -0.878401,1.51783 -1.597094,2.90324 -1.597094,3.0787 0,0.17545 -0.138906,0.45791 -0.308681,0.62769 -0.340281,0.34028 -0.421918,2.43217 -0.11434,2.92985 0.390205,0.63136 2.206133,1.3178 4.906931,1.85486 3.138715,0.62415 4.342887,1.31167 5.784178,3.30247 1.249026,1.72524 1.902746,3.78008 1.902746,5.98094 0,4.72411 -2.882937,7.72285 -8.521925,8.86422 -2.151092,0.4354 -9.56032,0.97195 -12.247867,0.88696 -0.873125,-0.0276 -2.480469,-0.0827 -3.571875,-0.12248 z m -25.463062,-2.39096 c 0.329119,-0.0633 0.805369,-0.0609 1.058333,0.005 0.252965,0.0662 -0.01631,0.118 -0.598397,0.11507 -0.582083,-0.003 -0.789054,-0.0571 -0.459936,-0.12041 z m -1.390274,-0.33901 c -0.09269,-0.14998 0.01351,-0.19434 0.248968,-0.10399 0.458369,0.1759 0.542234,0.36554 0.161649,0.36554 -0.136933,0 -0.321711,-0.1177 -0.410617,-0.26155 z m 58.272607,-0.94141 c -0.109141,-0.11448 -0.198438,-0.54549 -0.198438,-0.9578 0,-0.41231 0.0893,-0.74374 0.198438,-0.73651 0.109141,0.007 2.401092,0.35222 5.093232,0.76666 4.57517,0.7043 4.76521,0.75536 2.91041,0.78181 -1.0914,0.0155 -3.29406,0.10158 -4.89479,0.19115 -1.60073,0.0896 -2.999711,0.0692 -3.108852,-0.0453 z M 110.936,182.98832 c 0.20735,-0.5532 0.33663,-0.67763 0.39627,-0.38142 0.11276,0.56001 -0.12986,1.20248 -0.45411,1.20248 -0.14439,0 -0.11997,-0.34667 0.0578,-0.82106 z m -0.69679,-0.0791 c 0.26145,-0.34955 0.51478,-0.59787 0.56295,-0.55183 0.16523,0.15793 -0.50296,1.18737 -0.7707,1.18737 -0.14719,0 -0.0537,-0.28599 0.20775,-0.63554 z m -0.91999,-0.0454 c 0.2512,-0.26299 0.52929,-0.40561 0.61797,-0.31692 0.0887,0.0887 -0.11683,0.30387 -0.45672,0.47817 -0.59077,0.30298 -0.59787,0.29589 -0.16125,-0.16125 z m -7.2494,-0.47999 c -1.98973,-0.30737 -3.689697,-0.63163 -3.777716,-0.72059 -0.257564,-0.26032 0.338558,-1.55947 0.708117,-1.54324 0.774063,0.034 8.213209,2.86035 7.481029,2.84227 -0.43656,-0.0108 -2.42171,-0.27108 -4.41143,-0.57844 z M 104.1,180.08787 c -2.32833,-1.45233 -4.233335,-2.74962 -4.233335,-2.88286 0,-0.30539 4.385375,-3.4498 4.811275,-3.4498 0.32672,0 7.87874,4.58567 8.51197,5.16857 0.29468,0.27125 -0.0593,0.64033 -1.98438,2.06903 -1.28867,0.95638 -2.46209,1.73815 -2.60761,1.73726 -0.14553,-7.9e-4 -2.16959,-1.18988 -4.49792,-2.6422 z m -1.51357,0.85128 c -3.951471,-1.40959 -4.142127,-1.50978 -3.813875,-2.00416 0.779277,-1.17365 0.994632,-1.12011 4.692405,1.16678 1.95,1.20598 3.59506,2.23589 3.6557,2.28869 0.26094,0.22723 -0.61292,-0.0525 -4.53423,-1.45131 z m -69.770753,-10.2487 c 0.0127,-0.30822 0.07539,-0.37092 0.159853,-0.15985 0.07643,0.19099 0.06703,0.4192 -0.02089,0.50712 -0.08792,0.0879 -0.150453,-0.0684 -0.138964,-0.34727 z m 63.019731,-1.35843 c 0.402182,-0.0608 0.997495,-0.0592 1.322916,0.004 0.325422,0.0628 -0.0037,0.11256 -0.731242,0.11058 -0.727604,-0.002 -0.993857,-0.0534 -0.591674,-0.11419 z m -3.558977,-0.25547 c 0.190995,-0.0764 0.419201,-0.067 0.507119,0.0209 0.08792,0.0879 -0.06835,0.15045 -0.347266,0.13896 -0.308226,-0.0127 -0.370919,-0.0754 -0.159853,-0.15985 z m 7.408333,0 c 0.190995,-0.0764 0.419196,-0.067 0.507116,0.0209 0.0879,0.0879 -0.0683,0.15045 -0.347262,0.13896 -0.308227,-0.0127 -0.37092,-0.0754 -0.159854,-0.15985 z M 32.60588,167.80208 c 0.002,-0.7276 0.05337,-0.99385 0.114186,-0.59167 0.06082,0.40218 0.05919,0.99749 -0.0036,1.32292 -0.0628,0.32542 -0.11256,-0.004 -0.110574,-0.73125 z m 68.66638,1.00989 c 0.191,-0.0764 0.41921,-0.067 0.50712,0.0209 0.0879,0.0879 -0.0684,0.15046 -0.34726,0.13897 -0.30823,-0.0127 -0.37092,-0.0754 -0.15986,-0.15985 z m 8.46667,-1.85208 c 0.191,-0.0764 0.4192,-0.067 0.50712,0.0209 0.0879,0.0879 -0.0683,0.15045 -0.34727,0.13897 -0.30822,-0.0127 -0.37091,-0.0754 -0.15985,-0.15986 z m 1.32292,-0.26459 c 0.19099,-0.0764 0.4192,-0.067 0.50712,0.0209 0.0879,0.0879 -0.0684,0.15045 -0.34727,0.13896 -0.30823,-0.0127 -0.37092,-0.0754 -0.15985,-0.15985 z m 1.70829,-0.2672 c 0.25743,-0.0671 0.61462,-0.0627 0.79375,0.01 0.17913,0.0725 -0.0315,0.12736 -0.46806,0.12197 -0.43656,-0.005 -0.58312,-0.0647 -0.32569,-0.13177 z m 5.43546,0.003 c 0.19099,-0.0764 0.4192,-0.067 0.50712,0.0209 0.0879,0.0879 -0.0684,0.15045 -0.34727,0.13896 -0.30822,-0.0127 -0.37092,-0.0754 -0.15985,-0.15985 z m -85.61401,-3.25888 c 0,-0.50932 0.05445,-0.71768 0.121,-0.46302 0.06655,0.25467 0.06655,0.67138 0,0.92605 -0.06655,0.25466 -0.121,0.0463 -0.121,-0.46303 z m 0.25478,-2.51354 c 0.0054,-0.43656 0.06469,-0.58312 0.131773,-0.32569 0.06708,0.25743 0.06267,0.61462 -0.0098,0.79375 -0.07248,0.17913 -0.127363,-0.0315 -0.12197,-0.46806 z m -2.411943,-7.43038 c 0.0127,-0.30822 0.07539,-0.37092 0.159853,-0.15985 0.07643,0.19099 0.06703,0.4192 -0.02089,0.50712 -0.08792,0.0879 -0.150453,-0.0684 -0.138965,-0.34727 z m 58.716613,-0.50712 c 0.493655,-0.50932 0.957086,-0.92604 1.029846,-0.92604 0.07276,0 -0.271608,0.41672 -0.765262,0.92604 -0.493655,0.50933 -0.957086,0.92604 -1.029846,0.92604 -0.07276,0 0.271608,-0.41671 0.765262,-0.92604 z m -58.935361,-2.11666 c 0.0029,-0.58209 0.05712,-0.78906 0.120406,-0.45994 0.06329,0.32912 0.06088,0.80537 -0.0053,1.05833 -0.06622,0.25297 -0.118003,-0.0163 -0.115067,-0.59839 z m 63.036403,-1.98438 c 0.26339,-0.29104 0.538422,-0.52917 0.611182,-0.52917 0.07276,0 -0.08321,0.23813 -0.346599,0.52917 -0.26339,0.29104 -0.538421,0.52917 -0.611182,0.52917 -0.07276,0 0.08321,-0.23813 0.346599,-0.52917 z m -63.306325,-2.38125 c 0,-0.50932 0.05445,-0.71768 0.121,-0.46302 0.06655,0.25466 0.06655,0.67138 0,0.92604 -0.06655,0.25466 -0.121,0.0463 -0.121,-0.46302 z m 0.244975,-2.91042 c 0,-0.3638 0.06005,-0.51263 0.133452,-0.33072 0.0734,0.1819 0.0734,0.47955 0,0.66145 -0.0734,0.1819 -0.133452,0.0331 -0.133452,-0.33073 z m 69.543642,0.42928 c 0,-0.0549 0.208359,-0.26331 0.463016,-0.46303 0.41965,-0.3291 0.42901,-0.31974 0.0999,0.0999 -0.345643,0.44073 -0.562916,0.58089 -0.562916,0.36313 z m -69.035363,-3.75862 c 0.01269,-0.30822 0.07539,-0.37091 0.159852,-0.15985 0.07643,0.191 0.06703,0.4192 -0.02089,0.50712 -0.08792,0.0879 -0.150453,-0.0683 -0.138964,-0.34727 z m 105.141039,-1.4993 -1.31297,-1.38906 1.38907,1.31297 c 1.29074,1.22003 1.5104,1.46515 1.31297,1.46515 -0.0419,0 -0.66693,-0.62508 -1.38907,-1.38906 z M 80.164827,133.0277 c -0.164272,-0.30694 -0.231661,-0.66651 -0.149757,-0.79903 0.218988,-0.35433 6.741107,-5.03978 7.015345,-5.03978 0.128511,0 0.902558,0.92274 1.720099,2.05052 l 1.486437,2.05052 -0.677193,0.51614 c -0.471982,0.35973 -1.01736,0.49627 -1.799728,0.45061 -0.617392,-0.036 -1.783992,0.1638 -2.592445,0.4441 -0.808453,0.2803 -2.197603,0.59409 -3.087,0.69731 -1.475796,0.17129 -1.643182,0.13892 -1.915758,-0.37039 z m 0.518144,-2.2862 c 1.585466,-2.04422 4.035277,-4.87553 4.218594,-4.87553 0.122155,0 0.491582,0.21822 0.820946,0.48492 l 0.598842,0.48491 -0.90026,0.6663 c -3.657296,2.70682 -5.078842,3.67871 -4.738122,3.2394 z m 0.128389,-1.97369 c -0.209603,-0.33915 1.333249,-3.69559 1.698747,-3.69559 0.14632,0 0.560634,0.13423 0.920697,0.29829 l 0.654661,0.29828 -1.351147,1.68609 c -1.374498,1.71523 -1.62319,1.89796 -1.922958,1.41293 z m -1.565005,-0.49277 c -0.08048,-0.13023 -0.02798,-0.86085 0.116676,-1.62362 0.144656,-0.76276 0.263009,-1.43012 0.263009,-1.48302 0,-0.0529 0.416719,-0.0962 0.926042,-0.0962 0.509323,0 0.926041,0.0744 0.926041,0.16536 0,0.0909 -0.313914,0.86485 -0.697589,1.71979 -0.646192,1.4399 -1.176917,1.89573 -1.534179,1.31767 z m -1.379887,-0.23067 c -0.451223,-0.0727 -0.589957,-0.31192 -0.670478,-1.15627 -0.107413,-1.12632 0.253704,-1.55129 1.318202,-1.55129 0.471358,0 0.491162,0.10636 0.258638,1.38906 -0.138491,0.76398 -0.271065,1.3938 -0.294608,1.3996 -0.02355,0.006 -0.298834,-0.0307 -0.611754,-0.0811 z M 75.65729,127.7459 c -0.918893,-0.2556 -0.826042,-0.84796 0.198438,-1.26599 l 0.859895,-0.35087 v 0.9268 c 0,0.50974 -0.0893,0.91493 -0.198437,0.90043 -0.109141,-0.0145 -0.496094,-0.10917 -0.859896,-0.21037 z m -37.570834,-5.68399 c 0,-0.0549 0.208359,-0.2633 0.463021,-0.46302 0.419644,-0.32911 0.429002,-0.31975 0.09989,0.0999 -0.345644,0.44073 -0.562916,0.58088 -0.562916,0.36312 z m 2.116667,-2.41364 c 0.493655,-0.50933 0.957086,-0.92605 1.029846,-0.92605 0.07276,0 -0.271608,0.41672 -0.765263,0.92605 -0.493655,0.50932 -0.957086,0.92604 -1.029847,0.92604 -0.07276,0 0.271609,-0.41672 0.765264,-0.92604 z m 68.421787,-2.6108 c -1.54282,-1.65422 -2.80512,-3.12175 -2.80512,-3.26117 0,-0.32665 1.14312,-1.40408 1.48969,-1.40408 0.27894,0 0.44473,0.27978 2.86127,4.82865 0.83105,1.56435 1.45436,2.84427 1.38514,2.84427 -0.0692,0 -1.38816,-1.35345 -2.93098,-3.00767 z m 3.80946,1.37947 c 0,-0.69697 0.0587,-0.76916 0.39688,-0.48847 0.21828,0.18116 0.39687,0.48066 0.39687,0.66555 0,0.1849 -0.17859,0.4047 -0.39687,0.48847 -0.30003,0.11513 -0.39688,-0.0473 -0.39688,-0.66555 z m -2.78421,-2.92441 c -1.0153,-1.90429 -1.88388,-3.62033 -1.93018,-3.81342 -0.073,-0.30457 1.36998,-1.41981 1.84068,-1.42256 0.0929,-5.3e-4 0.25137,0.44549 0.35205,0.99119 0.10069,0.54571 0.53745,2.46376 0.97058,4.26234 0.43313,1.79859 0.74822,3.30945 0.70019,3.35748 -0.048,0.048 -0.91803,-1.47073 -1.93332,-3.37503 z m -67.594954,2.60063 c 0,-0.0549 0.208359,-0.2633 0.463021,-0.46302 0.419644,-0.32911 0.429002,-0.31975 0.09989,0.0999 -0.345644,0.44073 -0.562916,0.58088 -0.562916,0.36312 z m 69.870894,-0.0769 c -0.0115,-0.17 -0.0894,-0.52719 -0.17316,-0.79375 -0.14474,-0.4607 -0.13728,-0.46127 0.15102,-0.0117 0.1668,0.26015 0.24472,0.61733 0.17315,0.79375 -0.0939,0.23151 -0.13594,0.23476 -0.15101,0.0117 z m 6.32545,-2.45526 c -0.91141,-0.53409 -5.06999,-1.83138 -5.42902,-1.69361 -0.44912,0.17234 -0.48826,-0.49571 -0.21704,-3.7042 l 0.17111,-2.0243 h 1.11189 c 0.61153,0 2.02281,0.077 3.13617,0.17112 l 2.0243,0.17111 v 3.66535 c 0,2.01593 -0.0893,3.66172 -0.19844,3.65729 -0.10914,-0.004 -0.37867,-0.11366 -0.59897,-0.24276 z m -7.67154,-3.06686 c -0.365,-1.66319 -0.51471,-2.87985 -0.37099,-3.01484 0.13254,-0.12448 0.62793,-0.30786 1.10087,-0.40752 l 0.8599,-0.18118 v 3.19602 c 0,2.93191 -0.0404,3.19602 -0.48891,3.19602 -0.40585,0 -0.59286,-0.47371 -1.10087,-2.7885 z M 80.552082,101.25937 c 0.26339,-0.29104 0.538422,-0.52916 0.611182,-0.52916 0.07276,0 -0.08321,0.23812 -0.346599,0.52916 -0.26339,0.29105 -0.538422,0.52917 -0.611182,0.52917 -0.07276,0 0.08321,-0.23812 0.346599,-0.52917 z M 55.351096,96.893748 c 0.0029,-0.582083 0.05712,-0.789053 0.120406,-0.459935 0.06329,0.329117 0.06088,0.805367 -0.0053,1.058333 -0.06622,0.252965 -0.118005,-0.01633 -0.115068,-0.598398 z m 25.375053,-0.132291 c 0,-0.363802 0.06005,-0.512631 0.133453,-0.33073 0.0734,0.181902 0.0734,0.479558 0,0.661459 -0.0734,0.181901 -0.133453,0.03307 -0.133453,-0.330729 z m -0.869276,-3.108855 c -0.329107,-0.419645 -0.319749,-0.429003 0.0999,-0.0999 0.254662,0.199721 0.463021,0.40808 0.463021,0.463021 0,0.217763 -0.217273,0.07761 -0.562917,-0.363125 z m -22.985,-1.488958 c 0,-0.05494 0.208359,-0.2633 0.463021,-0.463021 0.419645,-0.329107 0.429003,-0.319749 0.0999,0.0999 -0.345644,0.44073 -0.562917,0.580887 -0.562917,0.363125 z m 4.233333,-2.910417 c 0,-0.05494 0.20836,-0.2633 0.463021,-0.463021 0.419645,-0.329107 0.429004,-0.319749 0.0999,0.0999 -0.345643,0.44073 -0.562917,0.580888 -0.562917,0.363125 z m 7.11,-0.627708 c -0.335891,-0.428297 -0.32344,-0.433911 0.166042,-0.07487 0.291042,0.213484 0.578776,0.421844 0.639411,0.463021 0.06063,0.04118 -0.01408,0.07487 -0.166042,0.07487 -0.151956,0 -0.43969,-0.20836 -0.639411,-0.463021 z m -4.249192,-0.776052 c 0.190995,-0.07643 0.419198,-0.06703 0.507119,0.02088 0.08792,0.08792 -0.06835,0.150452 -0.347266,0.138964 -0.308226,-0.0127 -0.370919,-0.07539 -0.159853,-0.159851 z"
         id="path316" />
      <path
         style="fill:#ea857c;stroke-width:0.264583"
         d="m 180.50347,184.15519 c 0.25743,-0.0671 0.61462,-0.0627 0.79375,0.01 0.17913,0.0725 -0.0315,0.12737 -0.46805,0.12197 -0.43657,-0.005 -0.58313,-0.0647 -0.3257,-0.13177 z m 2.64584,-0.26458 c 0.25743,-0.0671 0.61462,-0.0627 0.79375,0.01 0.17913,0.0725 -0.0315,0.12736 -0.46806,0.12197 -0.43656,-0.005 -0.58313,-0.0647 -0.32569,-0.13177 z m -5.49327,-0.34279 c -0.0927,-0.14998 0.0135,-0.19433 0.24897,-0.10398 0.45837,0.17589 0.54223,0.36554 0.16165,0.36554 -0.13693,0 -0.32171,-0.1177 -0.41062,-0.26156 z m 11.72248,0.0808 c 0.19099,-0.0764 0.4192,-0.067 0.50712,0.0209 0.0879,0.0879 -0.0684,0.15045 -0.34727,0.13897 -0.30823,-0.0127 -0.37092,-0.0754 -0.15985,-0.15985 z m -15.75925,-1.32457 c 0.25466,-0.0665 0.67138,-0.0665 0.92604,0 0.25466,0.0666 0.0463,0.12101 -0.46302,0.12101 -0.50932,0 -0.71768,-0.0545 -0.46302,-0.12101 z m 20.35835,-4.44782 c 0.005,-0.43656 0.0647,-0.58313 0.13178,-0.32569 0.0671,0.25743 0.0627,0.61462 -0.01,0.79375 -0.0725,0.17913 -0.12736,-0.0315 -0.12197,-0.46806 z m -16.50535,-1.37136 c 0.19099,-0.0764 0.4192,-0.067 0.50711,0.0209 0.0879,0.0879 -0.0683,0.15045 -0.34726,0.13897 -0.30823,-0.0127 -0.37092,-0.0754 -0.15985,-0.15985 z m 4.21679,-0.0107 c 0.47295,-0.0587 1.24685,-0.0587 1.71979,0 0.47295,0.0587 0.086,0.10672 -0.85989,0.10672 -0.94589,0 -1.33284,-0.048 -0.8599,-0.10672 z m 10.1915,-0.25653 c 0.25743,-0.0671 0.61462,-0.0627 0.79375,0.01 0.17913,0.0725 -0.0315,0.12736 -0.46806,0.12197 -0.43656,-0.005 -0.58313,-0.0647 -0.32569,-0.13177 z m -3.97379,-0.27074 c 0.40018,-0.0606 1.05503,-0.0606 1.45521,0 0.40018,0.0606 0.0728,0.11022 -0.7276,0.11022 -0.80037,0 -1.12779,-0.0496 -0.72761,-0.11022 z m -70.23034,-3.6954 c 0.191,-0.0764 0.4192,-0.067 0.50712,0.0209 0.0879,0.0879 -0.0683,0.15045 -0.34727,0.13896 -0.30822,-0.0127 -0.37091,-0.0754 -0.15985,-0.15985 z m -0.74414,-0.27193 c 0,-0.15196 0.20836,-0.43969 0.46302,-0.63941 0.4283,-0.33589 0.43391,-0.32344 0.0749,0.16604 -0.21348,0.29104 -0.42184,0.57878 -0.46302,0.63941 -0.0412,0.0606 -0.0749,-0.0141 -0.0749,-0.16604 z m 4.16884,-2.89811 c 0.18281,-0.0737 0.25773,-0.25477 0.1665,-0.40238 -0.11051,-0.17883 -7.9e-4,-0.18322 0.32909,-0.0131 0.27222,0.14038 0.67354,0.32145 0.89182,0.40239 0.21828,0.0809 -0.0794,0.14715 -0.66146,0.14715 -0.58208,0 -0.90876,-0.0603 -0.72595,-0.134 z m 1.71814,-1.07529 c 0.5457,-0.0571 1.43867,-0.0571 1.98438,0 0.5457,0.0571 0.0992,0.10378 -0.99219,0.10378 -1.09141,0 -1.53789,-0.0467 -0.99219,-0.10378 z m -43.491563,-1.06403 c -0.329108,-0.41965 -0.319749,-0.42901 0.0999,-0.0999 0.254661,0.19972 0.46302,0.40808 0.46302,0.46302 0,0.21776 -0.217273,0.0776 -0.562916,-0.36312 z m 76.555683,-0.70271 c -0.44375,-0.50541 -2.00572,-2.01178 -3.47105,-3.3475 -1.46533,-1.33572 -2.59743,-2.53667 -2.51578,-2.66879 0.34387,-0.55637 5.90922,4.32757 6.60702,5.79806 0.58419,1.2311 0.34348,1.31579 -0.62019,0.21823 z m -77.030211,-0.84069 c 0.0127,-0.30823 0.07539,-0.37092 0.159851,-0.15986 0.07643,0.191 0.06703,0.4192 -0.02088,0.50712 -0.08792,0.0879 -0.150453,-0.0684 -0.138964,-0.34726 z m 28.270501,-1.19182 c 0.64437,-0.12641 2.80941,-1.0111 4.81118,-1.96598 5.20932,-2.48492 8.46094,-3.02697 10.95056,-1.82546 0.43656,0.21069 0.55562,0.30271 0.26458,0.20449 -0.29104,-0.0982 -1.37238,-0.23108 -2.40298,-0.29525 -2.46281,-0.15334 -4.54684,0.38631 -8.04806,2.08396 -3.13378,1.5195 -4.79395,2.09236 -5.95313,2.05421 -0.6418,-0.0211 -0.56947,-0.0701 0.37785,-0.25597 z M 80.618228,163.7904 c 0.181901,-0.0734 0.479557,-0.0734 0.661458,0 0.181901,0.0734 0.03307,0.13345 -0.330729,0.13345 -0.363802,0 -0.51263,-0.0601 -0.330729,-0.13345 z m -7.845243,-16.55967 c 0.06287,-0.0364 0.635987,-0.5424 1.273596,-1.12448 0.637609,-0.58208 1.071933,-0.87974 0.965165,-0.66146 -0.10677,0.21828 0.02455,0.14653 0.291854,-0.15945 0.26729,-0.30599 1.51868,-1.46417 2.780866,-2.57376 l 2.294885,-2.01742 1.211366,0.53584 c 1.709669,0.75627 4.374346,0.64008 4.796036,-0.20913 0.160443,-0.3231 0.609917,-0.83776 0.998834,-1.14368 0.388916,-0.30592 0.70712,-0.73875 0.70712,-0.96184 0,-0.2231 0.28733,-0.7471 0.638511,-1.16446 0.639162,-0.7596 0.668322,-1.54808 0.08482,-2.29388 -0.171026,-0.2186 -0.149108,-0.59475 0.06475,-1.11103 0.177821,-0.4293 0.271131,-0.93543 0.207356,-1.12472 -0.06377,-0.1893 0.225941,-0.55322 0.643813,-0.80871 1.075265,-0.65744 1.16141,-1.12756 0.413666,-2.25747 -1.085056,-1.63964 -1.080802,-1.87819 0.08149,-4.56901 1.473526,-3.41134 5.273731,-15.00779 5.09646,-15.55201 -0.07888,-0.24217 0.105619,-0.0534 0.410006,0.41958 0.304385,0.47295 0.644475,0.85996 0.755754,0.86004 0.111281,8e-5 0.764002,0.54623 1.450496,1.21366 l 1.248169,1.21352 -0.160377,2.44152 c -0.185021,2.81668 0.04358,3.75275 1.396919,5.72017 l 0.91354,1.32805 -1.500943,2.93433 c -2.438233,4.76671 -7.840332,11.94565 -12.529767,16.65101 -2.899272,2.90913 -3.204382,3.04773 -7.549044,3.42939 -1.600729,0.14062 -3.565261,0.43333 -4.365625,0.65047 -1.218436,0.33056 -3.007421,0.55928 -2.619722,0.33493 z m 22.646521,-19.04821 c 1.802816,-0.86849 2.187956,-1.14325 1.700978,-1.21351 -0.927529,-0.13382 -2.744074,0.64507 -3.608319,1.54714 -0.415777,0.43398 -0.681077,0.78906 -0.589555,0.78906 0.09152,0 1.215128,-0.50521 2.496896,-1.12269 z m 33.168624,12.30722 c -2.2124,-0.78112 -4.41438,-3.53608 -8.41972,-10.53417 l -2.11372,-3.69307 -1.84134,-0.68264 c -2.70306,-1.00211 -3.81282,-1.95588 -4.31562,-3.70905 -0.19651,-0.6852 -0.15737,-0.84331 0.23414,-0.94569 0.35147,-0.0919 0.44149,-0.3179 0.35672,-0.89546 -0.0794,-0.54088 0.0145,-0.8216 0.31308,-0.93617 0.67561,-0.25926 0.50727,-0.68521 -0.7644,-1.93413 -1.31447,-1.29097 -1.25708,-1.87707 0.18382,-1.87707 0.70932,0 0.74245,-0.0378 0.36447,-0.41577 -0.52573,-0.52574 -0.52172,-0.56724 0.0862,-0.89259 0.37976,-0.20324 1.06604,-0.0732 2.81895,0.53418 2.90544,1.00671 3.82283,1.47822 3.82283,1.96481 0,0.2108 0.34668,0.56255 0.77039,0.78166 1.16685,0.60341 1.82963,1.61989 2.45132,3.75949 0.72681,2.50139 1.72078,3.65567 4.66086,5.41255 3.41637,2.0415 4.73877,3.06579 5.62954,4.36047 0.77079,1.12032 1.56914,1.53694 1.56914,0.81888 0,-0.18979 -0.34543,-0.88976 -0.76762,-1.55549 -0.77419,-1.22077 -2.69443,-2.72646 -5.69584,-4.46621 -2.33482,-1.35336 -3.74567,-2.80088 -4.10975,-4.21656 -0.16841,-0.65485 -0.3602,-1.37859 -0.42619,-1.60833 -0.0929,-0.32352 0.40274,-0.58199 2.19856,-1.14642 2.64582,-0.8316 4.92631,-1.11818 5.89042,-0.74024 0.54021,0.21177 0.93785,0.95813 2.16925,4.07168 0.82929,2.09681 1.63005,4.34288 1.77948,4.99128 0.87832,3.81138 -0.476,11.34301 -2.40983,13.40148 -0.45914,0.48873 -0.83928,0.60557 -1.91574,0.58883 -0.73862,-0.0115 -1.87235,-0.2078 -2.5194,-0.43625 z m -12.71417,-18.31998 c 0,-0.14095 -0.14998,-0.19873 -0.33328,-0.12839 -0.1833,0.0703 -0.78541,-0.10262 -1.33802,-0.38436 -0.58375,-0.29761 -0.96195,-0.38239 -0.90261,-0.20234 0.2291,0.69504 2.57391,1.34648 2.57391,0.71509 z m 0.29282,-2.26664 c -0.63931,-0.36545 -1.21829,-0.60856 -1.28661,-0.54024 -0.17752,0.17753 1.57722,1.20953 2.05212,1.2069 0.21828,-10e-4 -0.1262,-0.3012 -0.76551,-0.66666 z m 0.50093,-2.90104 c -1.71545,-0.89809 -2.46175,-1.15688 -1.97115,-0.68352 0.46577,0.4494 2.84,1.60968 3.26733,1.59673 0.23298,-0.007 -0.3503,-0.41801 -1.29618,-0.91321 z m -12.58649,17.2064 c -0.23531,-0.35914 -0.38689,-0.76015 -0.33682,-0.89113 0.0501,-0.13098 0.28432,0.16286 0.52057,0.65298 0.50546,1.04858 0.41992,1.15945 -0.18375,0.23815 z m -21.875492,-0.84517 c 0.181901,-0.0734 0.479557,-0.0734 0.661458,0 0.181901,0.0734 0.03307,0.13346 -0.330729,0.13346 -0.363802,0 -0.51263,-0.0601 -0.330729,-0.13346 z m 21.518282,-2.09578 c 0.0127,-0.30822 0.0754,-0.37091 0.15985,-0.15985 0.0764,0.191 0.067,0.4192 -0.0209,0.50712 -0.0879,0.0879 -0.15045,-0.0684 -0.13897,-0.34727 z m 0.26459,-1.5875 c 0.0127,-0.30822 0.0754,-0.37091 0.15985,-0.15985 0.0764,0.191 0.067,0.4192 -0.0209,0.50712 -0.0879,0.0879 -0.15045,-0.0684 -0.13896,-0.34727 z m 40.72494,-0.47356 c 0,-0.28574 1.05098,-2.28251 1.20138,-2.28251 0.0728,0 -0.12289,0.50601 -0.43477,1.12448 -0.61335,1.21625 -0.76661,1.44776 -0.76661,1.15803 z m -69.783854,-1.40656 c 0.254661,-0.0665 0.67138,-0.0665 0.926042,0 0.254661,0.0666 0.0463,0.121 -0.463021,0.121 -0.509323,0 -0.717683,-0.0545 -0.463021,-0.121 z m 73.677094,-2.07364 c -0.69637,-0.37073 -1.39937,-0.5917 -1.56223,-0.49105 -0.16558,0.10233 -0.22295,0.0646 -0.13014,-0.0855 0.24404,-0.39487 -1.54207,-1.08866 -3.62336,-1.40747 -3.26033,-0.4994 -4.13376,-1.13141 -4.13376,-2.99117 0,-0.71811 0.20297,-1.09423 0.9394,-1.74083 0.51667,-0.45364 0.87514,-0.92879 0.7966,-1.05587 -0.0785,-0.12709 0.0561,-0.21474 0.29925,-0.19479 0.24313,0.02 0.6288,-0.29505 0.85705,-0.69999 0.39332,-0.69781 0.377,-0.8049 -0.31261,-2.05066 -0.97208,-1.75602 -0.92116,-2.48254 0.29992,-4.28008 1.7359,-2.55538 1.68387,-3.88875 -0.26968,-6.91127 -0.56234,-0.87004 -1.02243,-1.75661 -1.02243,-1.97014 0,-0.3312 -0.0646,-0.33489 -0.43938,-0.0251 -0.39348,0.32519 -0.40939,0.30784 -0.15233,-0.16604 0.15788,-0.29104 0.43066,-1.09488 0.60617,-1.786313 0.22232,-0.875855 0.61914,-1.528207 1.30837,-2.15088 1.19944,-1.083627 2.13261,-1.392883 4.89488,-1.622171 1.16417,-0.09663 2.92812,-0.343826 3.9199,-0.549314 2.47839,-0.513504 4.58561,-0.466897 5.86968,0.129823 2.88124,1.338932 5.58419,6.094805 6.48067,11.402815 0.67946,4.02303 0.7971,4.51916 1.22724,5.17565 0.24862,0.37944 1.29496,1.26147 2.32519,1.96007 1.03024,0.69859 2.16089,1.58054 2.51256,1.95986 1.20581,1.30063 0.69674,2.93152 -1.37655,4.40999 -0.61322,0.43728 -1.59497,1.41718 -2.18168,2.17756 -1.79812,2.33038 -3.47771,2.78488 -6.63408,1.79519 -1.90357,-0.59687 -2.63903,-0.4833 -5.08556,0.78529 -2.2453,1.16425 -3.74548,1.27024 -5.41309,0.38245 z m -1.64965,-5.61364 c 0.12038,-0.64164 0.59667,-1.42972 1.35237,-2.23762 1.3418,-1.4345 1.44586,-2.11517 0.73357,-4.79825 l -0.43297,-1.63093 0.84291,-1.97664 c 1.41321,-3.31398 1.33706,-5.22783 -0.22425,-5.63612 -0.83726,-0.21895 -0.93578,0.29474 -0.17177,0.89571 0.93944,0.73897 0.88345,1.70999 -0.24241,4.20351 -1.07291,2.37625 -1.12232,3.03175 -0.3864,5.12558 0.2968,0.84445 0.46487,1.77094 0.37349,2.05885 -0.0914,0.28791 -0.6914,1.11489 -1.33339,1.83773 -0.90271,1.01641 -1.16724,1.52212 -1.16724,2.23146 0,1.21907 0.4225,1.17188 0.65609,-0.0733 z m 11.12727,-3.898 c 0.46506,-2.00059 0.16987,-2.7502 -1.61311,-4.09636 -2.08647,-1.5753 -2.90648,-3.50184 -2.14243,-5.03342 0.47517,-0.9525 0.11798,-1.31752 -0.46909,-0.47936 -1.03141,1.47254 0.0355,4.57782 2.07649,6.04353 1.44208,1.03562 1.6464,1.62578 1.2486,3.60656 -0.52049,2.59168 0.29621,2.5545 0.89954,-0.0409 z m 2.93377,-0.30718 c 0.22342,-0.8902 -0.18431,-2.53227 -0.66819,-2.69101 -0.27646,-0.0907 -0.32788,0.0389 -0.20205,0.50907 0.0928,0.34691 0.17043,1.13675 0.17242,1.75522 0.004,1.25006 0.42635,1.50832 0.69782,0.42672 z m -58.40713,8.96599 c -0.32911,-0.41965 -0.31975,-0.42901 0.0999,-0.0999 0.44073,0.34564 0.58088,0.56292 0.36312,0.56292 -0.0549,0 -0.2633,-0.20836 -0.46302,-0.46302 z m -0.79375,-1.05834 c -0.32911,-0.41964 -0.31975,-0.429 0.0999,-0.0999 0.25466,0.19972 0.46302,0.40808 0.46302,0.46302 0,0.21776 -0.21728,0.0776 -0.56292,-0.36313 z m 7.69763,-5.02708 -1.44617,-1.52135 1.52135,1.44617 c 1.41339,1.34353 1.64256,1.59653 1.44617,1.59653 -0.0414,0 -0.72596,-0.68461 -1.52135,-1.52135 z m -35.180547,-2.28271 c 0,-0.0549 0.20836,-0.2633 0.463021,-0.46302 0.419645,-0.32911 0.429004,-0.31975 0.0999,0.0999 -0.345643,0.44073 -0.562917,0.58088 -0.562917,0.36312 z m 32.000337,-1.15687 -0.91179,-0.99219 0.99218,0.9118 c 0.54571,0.50149 0.99219,0.94797 0.99219,0.99219 0,0.20204 -0.2239,0.0117 -1.07258,-0.9118 z m 32.06567,-1.92704 c -0.34355,-0.2862 -0.51083,-0.52036 -0.37174,-0.52036 0.13909,0 0.46839,0.23813 0.73178,0.52917 0.60507,0.66859 0.44848,0.66476 -0.36004,-0.009 z m -32.47379,-0.44925 c 0.39742,-0.4736 0.43168,-0.66713 0.17321,-0.97856 -0.1772,-0.21352 -0.78956,-2.86489 -1.36079,-5.89194 -0.57123,-3.02706 -1.16552,-5.88836 -1.32064,-6.358458 -0.15512,-0.470099 -0.20701,-0.976114 -0.11532,-1.124479 0.0917,-0.148365 1.14196,-0.271579 2.33392,-0.273807 1.19196,-0.0021 2.32875,-0.106418 2.52621,-0.231532 0.60107,-0.380862 0.11008,-1.696161 -1.20782,-3.235539 -0.67036,-0.783019 -1.4438,-1.929686 -1.71875,-2.548149 -0.27496,-0.618464 -0.6567,-1.124479 -0.84833,-1.124479 -0.67695,0 -1.7575,-1.421948 -2.17692,-2.864729 -0.38617,-1.328359 -0.38692,-1.488548 -0.008,-1.765443 0.37396,-0.273447 0.36383,-0.363334 -0.0992,-0.88075 -0.28363,-0.316923 -0.0352,-0.122992 0.55201,0.430958 0.9977,0.941142 2.16372,3.492464 1.59614,3.492464 -0.4566,0 -0.85186,-0.785212 -0.67529,-1.341525 0.1324,-0.417161 0.0843,-0.541002 -0.17658,-0.454991 -0.57972,0.191095 -0.5673,1.190834 0.0221,1.780246 0.6544,0.654402 2.20293,0.771126 1.96382,0.148024 -0.0839,-0.218578 0.039,-0.876094 0.27313,-1.461151 0.40081,-1.001718 0.39475,-1.151554 -0.10378,-2.56998 -0.88485,-2.517561 -0.64556,-3.396591 1.45063,-5.328796 2.93862,-2.708722 6.08409,-2.624549 7.84612,0.209961 0.4478,0.720367 1.22707,1.511948 1.81215,1.840783 1.22244,0.687046 2.38461,1.99626 2.38461,2.686312 0,0.462568 -0.0607,0.469984 -0.91754,0.11199 -1.26644,-0.529151 -2.90446,-0.491654 -3.47927,0.07965 -0.4442,0.441489 -0.41739,0.466051 0.57641,0.52814 3.11664,0.194718 3.82039,0.358021 3.82039,0.886511 0,0.678558 -0.9745,1.032745 -2.84147,1.032745 h -1.48411 l 0.62141,0.661458 c 0.80323,0.854999 1.76831,0.840725 2.68732,-0.03974 l 0.73189,-0.701201 -0.14798,0.911913 c -0.10374,0.639254 -0.0265,1.012775 0.25849,1.249254 0.34932,0.289915 0.45192,0.18565 0.72973,-0.741585 0.49575,-1.654685 0.56974,-1.096901 0.13259,0.99966 -0.4076,1.954887 -1.05138,3.555553 -2.00161,4.976725 l -0.55776,0.834186 2.06023,1.245333 c 2.13819,1.292461 3.61943,2.399705 5.60444,4.189401 0.89813,0.80975 1.0242,1.01225 0.55362,0.88919 -1.44011,-0.3766 -3.86158,1.68527 -5.21138,4.43744 -0.59949,1.22236 -0.80421,1.43372 -1.2512,1.29185 -0.29395,-0.0933 -1.79564,-0.16963 -3.3371,-0.16963 -2.05047,0 -2.97511,0.10801 -3.4452,0.40244 -0.3534,0.22135 -0.99252,0.48407 -1.42028,0.58384 -0.42776,0.0998 -1.13368,0.52939 -1.56872,0.95472 -0.43504,0.42533 -1.00752,0.84206 -1.27217,0.92605 -0.26465,0.084 -0.55062,0.4294 -0.63549,0.76755 -0.0849,0.33816 -0.52977,0.9553 -0.98867,1.37143 -0.481,0.43618 -0.62455,0.50658 -0.33895,0.16625 z m 4.7646,-8.37103 c -0.0952,-0.24799 -0.53864,-0.63997 -0.98551,-0.87105 -0.44686,-0.23109 -1.44579,-1.01911 -2.21983,-1.75117 -0.77405,-0.73205 -1.48185,-1.25651 -1.57291,-1.16545 -0.22007,0.22007 2.90412,3.26427 3.56546,3.47417 0.28467,0.0904 0.58608,0.42617 0.66978,0.74626 0.1077,0.41186 0.23461,0.49958 0.43412,0.30007 0.15506,-0.15506 0.20406,-0.48483 0.10889,-0.73283 z m 4.59917,-0.8144 c 0.20276,-0.445 0.69209,-0.7678 1.56382,-1.03159 0.69781,-0.21117 1.86405,-0.65308 2.59165,-0.98202 1.79675,-0.81231 0.87638,-1.01961 -1.14341,-0.25755 -2.62874,0.99182 -3.31126,1.41735 -3.51451,2.19121 -0.23695,0.90215 0.10317,0.95627 0.50245,0.0799 z m -0.35983,-6.236355 c 1.38911,-0.689581 2.1398,-1.268225 1.92456,-1.483474 -0.094,-0.09398 -0.50201,0.05319 -0.90673,0.327046 -2.01662,1.364517 -3.78087,1.517301 -5.78425,0.50092 -1.47343,-0.747519 -1.4339,-0.734978 -1.4339,-0.45503 0,0.265652 1.42542,1.110482 2.33961,1.38666 1.25165,0.378121 2.76011,0.270237 3.86071,-0.276122 z m -0.43241,-3.487658 c 0.55078,-0.550776 0.34664,-0.723464 -0.50448,-0.42676 -0.59273,0.206626 -1.08709,0.205184 -1.77249,-0.0052 -1.11047,-0.340816 -1.46006,-0.161124 -0.72798,0.374187 0.62546,0.457345 2.56802,0.494672 3.00495,0.05774 z m -0.36559,-2.488933 c 0.5359,-0.205642 0.53291,-0.967367 -0.008,-2.013157 -0.23452,-0.453509 -0.57993,-1.310798 -0.76759,-1.90509 -0.26497,-0.839123 -0.34564,-0.932749 -0.36107,-0.419071 -0.0109,0.363803 0.26476,1.353712 0.61267,2.199802 0.69152,1.681774 0.54593,1.992437 -0.778,1.660149 -0.62566,-0.157033 -0.87015,0.0759 -0.48447,0.461576 0.22028,0.22029 1.23017,0.229214 1.78634,0.0158 z m -3.62242,-3.116144 0.58929,-0.621768 -1.9122,-0.139673 c -1.05171,-0.07682 -1.95522,-0.09922 -2.00779,-0.04977 -0.0526,0.04944 0.2327,0.39415 0.63395,0.766014 0.90724,0.840803 1.92653,0.85789 2.69675,0.0452 z m 0.83749,-2.706722 c 0.34614,-0.297193 -0.7137,-0.895702 -1.5861,-0.895702 -1.10812,0 -3.14796,0.705403 -3.14796,1.088605 0,0.212791 4.47388,0.03049 4.73406,-0.192903 z m 8.06257,25.165762 c 8e-4,-1.45521 0.0451,-2.01677 0.0987,-1.24791 0.0536,0.76887 0.053,1.95949 -0.001,2.64584 -0.0543,0.68634 -0.0982,0.0573 -0.0975,-1.39793 z m 17.75187,1.70218 c -0.0959,-0.1552 -0.11766,-0.33893 -0.0483,-0.40828 0.0693,-0.0694 0.1966,0.0576 0.28277,0.28218 0.17891,0.46623 0.0264,0.54824 -0.23447,0.1261 z m 0.82164,-1.64745 c 0.0994,-0.26094 0.2473,-0.40778 0.32876,-0.32632 0.0815,0.0815 1.7e-4,0.29496 -0.18065,0.47443 -0.26131,0.25936 -0.2917,0.22897 -0.14811,-0.14811 z m 0.46668,-2.70057 c 0.001,-1.01864 0.049,-1.40294 0.10627,-0.85399 0.0573,0.54895 0.0563,1.38238 -0.002,1.85208 -0.0584,0.4697 -0.10531,0.0206 -0.10414,-0.99809 z m -43.193014,-0.022 c 0.0127,-0.30822 0.07539,-0.37092 0.159851,-0.15985 0.07643,0.19099 0.06703,0.4192 -0.02088,0.50712 -0.08792,0.0879 -0.150453,-0.0683 -0.138964,-0.34727 z m 31.973664,-5.07119 -0.64143,-0.7276 0.72761,0.64143 c 0.68005,0.59952 0.84894,0.81378 0.64143,0.81378 -0.0474,0 -0.37482,-0.32743 -0.72761,-0.72761 z m -48.377831,0.0441 c 0.0127,-0.30823 0.07539,-0.37092 0.159851,-0.15985 0.07643,0.19099 0.06703,0.4192 -0.02088,0.50712 -0.08792,0.0879 -0.150453,-0.0684 -0.138964,-0.34727 z m 23.527031,-5.137327 c -0.23847,-0.154109 -0.2711,-0.258098 -0.0818,-0.260532 0.17331,-0.0021 0.3887,0.115012 0.47863,0.260532 0.20302,0.328489 0.11142,0.328489 -0.39687,0 z M 120.4386,85.781248 c 0.003,-0.582083 0.0571,-0.789054 0.1204,-0.459936 0.0633,0.329118 0.0609,0.805368 -0.005,1.058334 -0.0662,0.252965 -0.11801,-0.01632 -0.11507,-0.598398 z m 0.51402,-2.645833 c 0.005,-0.436563 0.0647,-0.583126 0.13177,-0.325694 0.0671,0.257431 0.0627,0.614619 -0.01,0.79375 -0.0725,0.17913 -0.12736,-0.03149 -0.12197,-0.468056 z m -19.87444,-0.815798 c 0.0127,-0.308226 0.0754,-0.370919 0.15985,-0.159853 0.0764,0.190994 0.067,0.419198 -0.0209,0.507119 -0.0879,0.08792 -0.15045,-0.06835 -0.13896,-0.347266 z m 19.64296,-2.226911 c 0,-0.945885 0.048,-1.332838 0.10672,-0.859896 0.0587,0.472943 0.0587,1.246849 0,1.719792 -0.0587,0.472943 -0.10672,0.08599 -0.10672,-0.859896 z m -2.21559,-4.960937 -0.9118,-0.992188 0.99219,0.911799 c 0.5457,0.501489 0.99218,0.947973 0.99218,0.992187 0,0.202041 -0.22389,0.01171 -1.07257,-0.911798 z m -14.18507,-0.715966 c 0,-0.21188 0.10116,-0.322715 0.22481,-0.246301 0.12364,0.07641 0.1563,0.249771 0.0726,0.385236 -0.21395,0.346176 -0.29739,0.307197 -0.29739,-0.138935 z m 10.78062,-4.26702 c 0.0127,-0.308225 0.0754,-0.37092 0.15985,-0.159853 0.0764,0.190996 0.067,0.419199 -0.0209,0.507118 -0.0879,0.08792 -0.15045,-0.06835 -0.13896,-0.347265 z m -8.22298,-3.152952 c 0.49366,-0.509323 0.95709,-0.926042 1.02985,-0.926042 0.0728,0 -0.27161,0.416719 -0.76526,0.926042 -0.49366,0.509323 -0.95709,0.926042 -1.02985,0.926042 -0.0728,0 0.27161,-0.416719 0.76526,-0.926042 z m 6.45716,-0.198438 -0.50403,-0.595312 0.59531,0.504028 c 0.32742,0.277215 0.59531,0.545106 0.59531,0.595313 0,0.211733 -0.21293,0.05542 -0.68659,-0.504029 z m -4.3901,-1.172928 c 0.191,-0.07643 0.4192,-0.06703 0.50712,0.02089 0.0879,0.08792 -0.0683,0.150453 -0.34727,0.138965 -0.30822,-0.01269 -0.37091,-0.07539 -0.15985,-0.159853 z"
         id="path314" />
      <path
         style="fill:#51c7c9;stroke-width:0.264583"
         d="m 40.428673,184.61382 c -2.479198,-1.34787 -5.826255,-7.04312 -7.077552,-12.04294 -0.61792,-2.46903 -0.834283,-6.93924 -0.507725,-10.48993 0.300957,-3.27233 0.295387,-3.35486 -0.275368,-4.08046 -1.698127,-2.15882 -2.244098,-4.77756 -2.259138,-10.83591 -0.01071,-4.3124 0.058,-5.05877 0.726978,-7.89735 0.886288,-3.76067 2.487835,-8.50509 3.868153,-11.45901 3.040979,-6.50779 7.694188,-11.05367 14.082223,-13.75741 2.276007,-0.96332 8.668997,-2.83585 8.898459,-2.60639 0.07175,0.0718 -0.06725,0.34892 -0.308895,0.61594 -0.6389,0.70597 -0.54568,1.48348 0.414123,3.45405 1.114959,2.28911 3.31923,4.50463 5.106011,5.13207 1.982594,0.69621 4.450744,1.03853 5.262531,0.72989 0.553942,-0.21061 0.684234,-0.43445 0.684234,-1.17551 0,-0.50346 -0.122394,-1.23729 -0.271987,-1.63075 -0.343114,-0.90246 -0.247094,-0.99023 0.692452,-0.63302 0.417139,0.1586 1.308843,0.3009 1.98156,0.31622 1.131665,0.0258 1.274294,0.10875 1.907463,1.10957 0.627959,0.99259 2.305095,5.51764 2.305095,6.21935 0,0.165 -0.197281,0.37571 -0.438404,0.46823 -0.575477,0.22083 -2.736596,2.29646 -2.736596,2.62834 0,0.35989 -5.633281,5.37245 -6.971332,6.20318 -0.604152,0.37508 -3.182054,1.79136 -5.728668,3.14727 -8.623345,4.59141 -13.093965,7.1211 -13.899404,7.86498 -1.862445,1.72008 -3.740943,5.34481 -4.381319,8.45413 -0.441793,2.14511 -0.06148,2.80234 1.892919,3.27119 2.539864,0.6093 7.886627,-0.4783 10.816517,-2.20023 2.051363,-1.20561 6.268001,-5.46635 10.153185,-10.25939 1.837386,-2.26673 3.647313,-4.26103 4.022058,-4.43177 0.374748,-0.17075 1.221338,-0.31045 1.881312,-0.31045 1.086588,0 1.325872,-0.12526 2.532769,-1.32583 1.372121,-1.36492 1.549628,-1.44508 3.768648,-1.70184 1.403475,-0.16239 1.720369,-0.43077 1.735979,-1.47025 0.0055,-0.3638 0.242766,-0.95911 0.527336,-1.32292 l 0.517401,-0.66145 0.0059,0.7276 c 0.0032,0.40018 0.03565,0.72758 0.07203,0.72756 0.03638,-3e-5 0.999355,-0.17862 2.139942,-0.39688 2.375027,-0.45447 4.098988,-0.50325 4.673087,-0.13224 0.278037,0.17968 -0.157705,0.26186 -1.455209,0.27445 -1.018646,0.01 -2.711519,0.17184 -3.761941,0.3599 -1.366258,0.2446 -1.943947,0.25947 -2.029632,0.0522 -0.06588,-0.15933 -0.129175,0.0788 -0.140663,0.52919 -0.02884,1.13054 -0.743318,1.69344 -2.158389,1.70046 -1.081283,0.005 -3.41875,0.81729 -3.41875,1.1875 0,0.0885 0.130942,0.0799 0.290981,-0.019 0.411943,-0.2546 -0.03783,0.5377 -2.039588,3.59285 -2.428354,3.70623 -2.728371,4.50281 -2.489489,6.60992 0.113641,1.0024 0.541592,2.48005 1.025909,3.54233 1.111713,2.43837 1.089443,3.59812 -0.121738,6.33974 -0.797054,1.80421 -0.983689,2.58868 -1.142534,4.80231 -0.1153,1.60683 -0.361135,2.97166 -0.626017,3.47556 -0.755232,1.43671 -3.564409,3.71834 -6.322148,5.1349 -2.514179,1.29144 -5.170435,3.2839 -12.14859,9.11264 -1.39636,1.16635 -3.122766,2.41331 -3.836458,2.77101 -1.758804,0.8815 -4.114832,1.00558 -5.437695,0.28637 z m 6.605611,-23.98097 c 2.126525,-0.47343 2.45863,-0.65972 3.48403,-1.9544 1.083506,-1.36804 0.678985,-1.35888 -0.887603,0.0201 -1.433369,1.2617 -2.944468,1.74 -6.252588,1.9791 -2.565546,0.18543 -5.165932,-0.16776 -6.653383,-0.9037 -0.560744,-0.27743 -1.019534,-0.40272 -1.019534,-0.27841 0,0.44031 2.192508,1.33603 3.796911,1.55117 1.989751,0.26681 5.28901,0.0855 7.532167,-0.41385 z m 2.693839,-18.47813 c 0,-0.68766 -0.465331,-1.59114 -1.289526,-2.50376 -1.246355,-1.38005 -1.492626,-2.41031 -1.455113,-6.08732 0.03843,-3.76654 -0.37338,-3.81623 -0.61581,-0.0743 -0.184732,2.85137 0.313012,4.81011 1.619771,6.3742 0.497644,0.59564 0.983274,1.44025 1.07918,1.87691 0.176982,0.80579 0.661498,1.10923 0.661498,0.41427 z m 28.508855,26.1221 c 0.327421,-0.0631 0.863203,-0.0631 1.190625,0 0.327421,0.0631 0.05953,0.11466 -0.595313,0.11466 -0.654844,0 -0.922734,-0.0516 -0.595312,-0.11466 z m 13.163021,-17.80495 c 0.716663,-0.7276 1.362556,-1.32291 1.435317,-1.32291 0.07276,0 -0.45407,0.59531 -1.170734,1.32291 -0.716664,0.72761 -1.362557,1.32292 -1.435317,1.32292 -0.07276,0 0.45407,-0.59531 1.170734,-1.32292 z m -11.824523,-10.0772 c -0.520536,-0.29131 -1.272353,-1.70326 -1.272353,-2.38955 0,-0.26357 0.249653,-0.61282 0.554784,-0.77612 0.737875,-0.3949 6.458908,-0.67537 6.674094,-0.32719 0.102166,0.16531 -0.940562,0.3188 -2.805536,0.41297 -3.312541,0.16727 -3.957651,0.32753 -3.837999,0.95341 0.06507,0.34036 0.559176,0.46614 2.376001,0.60481 1.261616,0.0963 2.510412,0.30472 2.775106,0.46316 0.357757,0.21415 -0.146796,0.24435 -1.966137,0.11768 -2.405959,-0.16751 -2.819411,-0.0432 -2.134306,0.64196 0.419134,0.41913 0.189087,0.6082 -0.363654,0.29887 z m 23.598484,0.18772 c 0,-0.0549 0.20836,-0.2633 0.46302,-0.46302 0.41964,-0.3291 0.429,-0.31974 0.0999,0.0999 -0.34564,0.44073 -0.56291,0.58089 -0.56291,0.36312 z M 78.324012,107.19045 c 0.0127,-0.30823 0.07539,-0.37092 0.159851,-0.15985 0.07643,0.19099 0.06703,0.4192 -0.02088,0.50712 -0.08792,0.0879 -0.150452,-0.0684 -0.138964,-0.34727 z M 62.95729,99.430809 c 0,-0.804722 1.250905,-2.140186 2.004676,-2.140186 0.222287,0 0.376574,-0.263138 0.376574,-0.642255 0,-1.208936 2.05078,-2.19176 3.137101,-1.503434 0.250246,0.158565 0.27028,0.282279 0.06615,0.40844 -0.161057,0.09954 -0.418661,0.103212 -0.572453,0.0082 -0.620657,-0.383588 -1.541248,0.149992 -1.881312,1.090422 -0.239342,0.661889 -0.605919,1.057261 -1.21698,1.312579 -0.579771,0.242245 -1.006197,0.680657 -1.265367,1.300938 -0.475144,1.137197 -0.648385,1.181367 -0.648385,0.165346 z m -1.852084,-1.966886 c 0,-0.341249 0.20836,-0.808223 0.463021,-1.03772 0.612566,-0.552034 1.814473,-0.840433 2.032477,-0.48769 0.09795,0.158474 -0.145902,0.354258 -0.566447,0.454794 -0.981321,0.234599 -1.399884,0.591691 -1.399884,1.194295 0,0.273225 -0.119062,0.496771 -0.264583,0.496771 -0.145521,0 -0.264584,-0.279204 -0.264584,-0.62045 z M 78.28628,95.905175 C 78.010502,95.278549 77.706647,95.018699 77.178644,94.957946 76.335761,94.86096 76.18511,94.380207 76.9976,94.380207 c 0.839944,0 1.568392,0.490212 1.857188,1.249796 0.390223,1.026366 -0.127601,1.277006 -0.568508,0.275172 z m 2.418982,-0.09181 c 0.0127,-0.308226 0.07539,-0.370919 0.159851,-0.159853 0.07643,0.190995 0.06703,0.419198 -0.02088,0.507119 -0.08792,0.08792 -0.150452,-0.06835 -0.138964,-0.347266 z"
         id="path312" />
      <path
         style="fill:#e4c71b;stroke-width:0.264583"
         d="m 130.55833,187.48755 c -6.44567,-0.67052 -9.93448,-2.47398 -11.79908,-6.09927 -0.83609,-1.62557 -0.83995,-3.93369 -0.01,-5.70679 0.62195,-1.32804 0.63478,-1.33725 1.66979,-1.19842 0.59532,0.0798 1.6891,-0.0433 2.54823,-0.28698 0.82786,-0.23478 2.76794,-0.5379 4.31128,-0.6736 1.91219,-0.16813 3.14508,-0.41967 3.87027,-0.78963 1.39816,-0.71329 4.22484,-3.79137 7.68672,-8.37036 5.25114,-6.94565 6.55336,-9.19814 11.62507,-20.10833 3.2625,-7.01824 5.1072,-12.51346 5.0946,-15.17637 -0.003,-0.67529 -0.24132,-1.74682 -0.52917,-2.38117 -0.65632,-1.44642 -0.65324,-1.53663 0.0657,-1.92141 1.2867,-0.68862 2.34863,-0.73603 4.13403,-0.18458 2.09165,0.64605 3.96076,0.54681 5.06402,-0.26887 l 0.75735,-0.55993 0.40566,1.11804 c 1.13008,3.11463 2.02113,6.84037 4.15642,17.37926 2.08122,10.27202 2.33859,11.22796 4.52423,16.80392 2.85908,7.29404 3.05565,9.40719 1.37176,14.74638 -1.70611,5.4096 -4.60546,9.3611 -7.95606,10.84323 -2.33461,1.03271 -10.63023,2.25447 -19.39649,2.85667 -4.48141,0.30786 -14.54574,0.29539 -17.5948,-0.0218 z m 25.94525,-21.4663 c -0.6978,-1.47049 -6.26315,-6.35443 -6.60702,-5.79806 -0.0816,0.13212 1.05045,1.33307 2.51578,2.66879 1.46533,1.33572 3.0273,2.84209 3.47105,3.3475 0.96367,1.09756 1.20438,1.01287 0.62019,-0.21823 z m -35.60254,6.96936 c 0.61527,-0.49293 1.5875,-0.90401 1.5875,-0.67122 0,0.0562 -0.50601,0.34943 -1.12448,0.65165 -1.08748,0.53143 -1.10272,0.53208 -0.46302,0.0196 z m 8.50647,-10.58609 c -2.35919,-4.51128 -2.40387,-6.73789 -0.17456,-8.7002 0.64751,-0.56996 1.83842,-1.28929 2.64647,-1.59851 1.49736,-0.57301 4.66693,-1.22977 5.13506,-1.06403 0.45344,0.16054 -5.53566,13.98218 -6.05866,13.98218 -0.0982,0 -0.7949,-1.17875 -1.54831,-2.61944 z"
         id="path310" />
      <path
         style="fill:#e7545a;stroke-width:0.264583"
         d="m 178.13473,183.55977 c -2.43167,-1.10401 -2.49038,-3.81466 -0.11206,-5.17395 0.20267,-0.11584 1.15517,-0.35738 2.11666,-0.53677 0.9615,-0.17938 2.9388,-0.64784 4.394,-1.04102 2.31174,-0.6246 2.99916,-0.69972 5.44398,-0.59492 1.53897,0.066 3.05702,0.25849 3.37343,0.42782 0.88279,0.47246 0.75045,1.86296 -0.38248,4.01894 -1.44347,2.74693 -1.84079,2.92196 -7.21037,3.17626 -6.17781,0.29259 -6.38669,0.28502 -7.62316,-0.27636 z M 140.23565,154.5379 c 1.0161,-1.1033 4.65472,-2.61304 4.08811,-1.69625 -0.18054,0.29211 -4.11764,2.39272 -4.4846,2.39272 -0.13472,0 0.0437,-0.31341 0.39649,-0.69647 z m -15.76177,-15.74368 c -0.58156,-0.13608 -2.45317,-0.71906 -4.15914,-1.29551 -2.78125,-0.93979 -3.66018,-1.10129 -8.50592,-1.5629 -3.07065,-0.29251 -5.82015,-0.68862 -6.36757,-0.91735 -1.40397,-0.58661 -1.86967,-1.83021 -1.49376,-3.98887 0.60578,-3.47862 0.26103,-4.63026 -2.25866,-7.54522 -0.81762,-0.94588 -1.787351,-2.36271 -2.154949,-3.14851 -0.618406,-1.32193 -0.656551,-1.62258 -0.510353,-4.02232 l 0.15801,-2.59361 -1.133976,-1.08075 c -0.623689,-0.59441 -1.375859,-1.25017 -1.671494,-1.45724 -1.015154,-0.71104 -1.221933,-1.72289 -0.736058,-3.6018 1.296435,-5.01334 5.87424,-10.838527 7.20249,-9.165037 0.47065,0.592992 0.84163,2.096557 1.89651,7.686547 0.57123,3.02705 1.17591,5.66917 1.34373,5.87138 0.23711,0.2857 0.17639,0.54178 -0.27242,1.14881 -0.38782,0.52456 -0.50285,0.91205 -0.35018,1.17959 0.12505,0.21914 1.62634,1.89817 3.33621,3.7312 1.70987,1.83302 3.10886,3.54828 3.10886,3.81168 0,0.62898 1.121,2.13135 2.04512,2.74088 0.40315,0.26591 1.47766,0.7322 2.3878,1.0362 1.61005,0.53778 1.6841,0.604 2.73837,2.449 2.62616,4.59585 4.41476,7.46598 5.72118,9.18071 0.77257,1.01403 1.25368,1.83173 1.06912,1.81711 -0.18455,-0.0146 -0.81137,-0.13791 -1.39292,-0.27399 z m 8.35177,-8.00713 c -0.89077,-1.29468 -2.21317,-2.31897 -5.62954,-4.36047 -2.94008,-1.75688 -3.93405,-2.91116 -4.66086,-5.41255 -0.62125,-2.1381 -1.28449,-3.1561 -2.44838,-3.75797 l -0.76746,-0.39686 0.14266,-4.52768 c 0.16177,-5.13438 0.43642,-6.02401 2.58,-8.35699 3.15401,-3.43267 5.61138,-1.98051 8.49949,5.02273 1.15968,2.81205 3.32631,8.88016 3.31818,9.29327 -0.003,0.16446 -0.2299,0.5905 -0.50371,0.94676 l -0.49782,0.64774 -0.40225,-0.96272 c -0.66264,-1.58592 -2.3997,-1.66585 -6.80889,-0.31331 -1.85192,0.56809 -2.34663,0.82023 -2.25242,1.14801 0.0664,0.23102 0.25852,0.95581 0.42693,1.61066 0.36408,1.41568 1.77493,2.8632 4.10975,4.21656 3.00141,1.73975 4.92165,3.24544 5.69584,4.46621 0.42219,0.66573 0.76762,1.3657 0.76762,1.55549 0,0.71806 -0.79835,0.30144 -1.56914,-0.81888 z m -39.313485,-2.27094 c 0.864245,-0.90207 2.68079,-1.68096 3.608319,-1.54714 0.486978,0.0703 0.101838,0.34502 -1.700978,1.21351 -1.281768,0.61748 -2.405372,1.12269 -2.496896,1.12269 -0.09152,0 0.173778,-0.35508 0.589555,-0.78906 z m 20.530605,-6.42474 c -0.35231,-0.17975 -0.68653,-0.46629 -0.74272,-0.63674 -0.0593,-0.18005 0.31886,-0.0953 0.90261,0.20234 0.55261,0.28174 1.15472,0.4547 1.33802,0.38436 0.1833,-0.0703 0.33328,-0.0126 0.33328,0.12839 0,0.35832 -1.06462,0.31277 -1.83119,-0.0784 z m 1.60291,-2.06187 c -1.30397,-0.79497 -0.84376,-0.90662 0.5211,-0.12642 0.63931,0.36546 0.98379,0.66545 0.76551,0.66666 -0.21828,0.001 -0.79725,-0.2419 -1.28661,-0.54024 z m 0.59841,-2.78494 c -1.36871,-0.72177 -1.97931,-1.17777 -1.54753,-1.15572 0.48573,0.0248 3.68597,1.81372 3.26733,1.82641 -0.23299,0.007 -1.0069,-0.29475 -1.7198,-0.67069 z m -6.09591,-12.21072 c -0.0837,-0.32009 -0.38511,-0.65591 -0.66978,-0.74626 -0.66134,-0.2099 -3.78553,-3.2541 -3.56546,-3.47417 0.0911,-0.0911 0.79886,0.4334 1.57291,1.16545 0.77404,0.73206 1.77297,1.52008 2.21983,1.75117 0.91277,0.47201 1.3,1.1805 0.87662,1.60388 -0.19951,0.19951 -0.32642,0.11179 -0.43412,-0.30007 z m 4.63973,-1.32711 c 0.20325,-0.77386 0.88577,-1.19939 3.51451,-2.19121 2.01979,-0.76206 2.94016,-0.55476 1.14341,0.25755 -0.7276,0.32894 -1.89384,0.77085 -2.59165,0.98202 -0.87173,0.26379 -1.36106,0.58659 -1.56382,1.03159 -0.39928,0.87632 -0.7394,0.8222 -0.50245,-0.0799 z M 104.53749,89.683852 c -0.13343,-0.254661 -0.32833,-0.862099 -0.43313,-1.349864 -0.10735,-0.499658 -0.74496,-1.499058 -1.46043,-2.289106 -0.69844,-0.771245 -1.34981,-1.654062 -1.44749,-1.961817 -0.21928,-0.690883 1.07071,-6.403075 1.75172,-7.756802 0.27345,-0.543575 0.79057,-1.180551 1.14915,-1.415503 l 0.65197,-0.427185 -0.77218,-0.772181 c -0.90477,-0.904769 -1.264,-2.598332 -0.80599,-3.799761 0.35595,-0.933738 0.6953,-1.186498 1.60029,-1.191959 0.45285,-0.0027 1.09773,-0.43688 1.98105,-1.333684 1.4707,-1.493151 2.74955,-1.984992 4.42517,-1.701898 2.24058,0.378544 4.41806,3.759598 4.11165,6.384294 -0.099,0.847721 -0.0238,0.964315 0.93759,1.454792 1.58282,0.807499 3.53748,2.770264 3.99774,4.014324 0.26129,0.706259 0.42208,2.141761 0.44922,4.010413 0.0451,3.1071 -0.24502,5.301049 -0.97408,7.365923 -0.40901,1.158415 -0.49135,1.241277 -0.86359,0.86904 -0.35118,-0.351179 -0.36573,-0.609595 -0.0993,-1.763713 0.68845,-2.982507 0.19797,-4.302831 -2.07247,-5.578887 -0.58508,-0.328835 -1.36436,-1.120416 -1.81216,-1.840783 -1.76203,-2.83451 -4.90749,-2.918683 -7.84611,-0.209961 -2.09619,1.932205 -2.33549,2.811235 -1.45064,5.328796 0.49854,1.418426 0.50459,1.568262 0.10378,2.56998 -0.23409,0.585057 -0.357,1.242573 -0.27312,1.461151 0.2168,0.564983 -0.54926,0.505756 -0.84861,-0.06561 z m -0.56978,-4.39946 c 0,-0.05499 -0.1786,-0.527412 -0.39688,-1.049835 -0.65301,-1.562867 -0.51053,-2.729822 0.50605,-4.14483 1.12112,-1.560511 1.82977,-2.907437 1.52968,-2.907437 -0.21535,0 -1.3145,1.520834 -2.64188,3.655433 -0.69845,1.123196 -0.67715,2.771365 0.0502,3.881374 0.36722,0.560438 0.95288,0.907883 0.95288,0.565295 z m 16.09283,-2.986746 c -0.047,-0.242491 -0.59104,-0.808038 -1.20887,-1.256771 -0.61782,-0.448733 -1.48011,-1.319597 -1.91619,-1.935255 -0.86615,-1.222838 -2.68696,-2.572144 -3.22771,-2.391892 -0.19555,0.06518 0.13295,0.426777 0.77185,0.849576 0.61177,0.404849 1.49267,1.328839 1.95756,2.053309 0.46489,0.724471 1.29225,1.599392 1.83857,1.944269 0.54632,0.344876 1.06988,0.750935 1.16346,0.902353 0.27048,0.437656 0.71538,0.319088 0.62133,-0.165589 z m -14.423,-2.469523 c -0.27049,-0.280984 -1.40514,1.389158 -1.40309,2.065274 0.002,0.634415 0.0862,0.567288 0.7663,-0.610066 0.42028,-0.727604 0.70684,-1.382448 0.63679,-1.455208 z m 12.93637,-0.904827 c -0.43267,-0.492788 -0.84368,-1.056344 -0.91334,-1.252346 -0.0697,-0.196003 -0.21853,-0.27089 -0.3308,-0.166415 -0.31955,0.297364 0.39563,1.755506 1.15336,2.351541 0.9801,0.770943 1.04062,0.149029 0.0908,-0.93278 z m -7.38324,-6.238923 c 1.16835,0 2.30204,-0.873602 2.30204,-1.773911 0,-1.464118 -2.01201,-3.543837 -2.89845,-2.995988 -0.26145,0.161588 -0.14089,0.328546 0.46261,0.640627 1.01791,0.526383 1.64209,1.394233 1.64209,2.283143 0,0.92061 -0.45912,1.316962 -1.52552,1.316962 -0.97696,0 -1.91407,0.397727 -1.91407,0.812368 0,0.173181 0.1768,0.169965 0.51178,-0.0093 0.28147,-0.150642 0.92026,-0.273893 1.41952,-0.273893 z m 0.0497,-1.846615 c 0.26233,-0.424462 -0.37185,-1.328385 -0.93197,-1.328385 -0.61245,0 -0.69242,0.406333 -0.12298,0.624847 0.21828,0.08376 0.39687,0.334626 0.39687,0.557474 0,0.453231 0.41176,0.544622 0.65808,0.146064 z"
         id="path308" />
      <path
         style="fill:#ba564e;stroke-width:0.264583"
         d="m 176.35746,182.7075 c -0.27662,-0.16062 -1.55654,-0.35211 -2.84427,-0.42553 -1.28772,-0.0734 -2.34131,-0.17548 -2.34131,-0.2268 0,-0.0513 0.43249,-0.65988 0.96109,-1.35236 0.52861,-0.69248 1.33228,-2.01217 1.78594,-2.93264 l 0.82484,-1.67357 1.19063,0.21836 c 0.65484,0.12011 3.03888,0.21837 5.29786,0.21837 h 4.10724 l -1.99057,0.58477 c -1.09482,0.32162 -2.58589,0.665 -3.31349,0.76306 -0.72761,0.0981 -1.56104,0.29628 -1.85209,0.44048 -1.68924,0.83699 -2.34894,2.42776 -1.60412,3.86809 0.2349,0.45424 0.39426,0.82228 0.35415,0.81785 -0.0401,-0.004 -0.29927,-0.13946 -0.5759,-0.30008 z m -56.62852,-8.39314 c -0.1827,-0.29562 0.20081,-0.60279 1.70127,-1.36265 1.4442,-0.73137 0.99243,-0.9916 -0.71278,-0.41057 -1.61927,0.55174 -2.83802,0.5626 -2.63112,0.0234 0.10488,-0.27331 -0.0167,-0.39687 -0.39062,-0.39687 -0.88459,0 -0.44635,-0.58294 1.3426,-1.78594 1.25997,-0.84728 1.94027,-1.12963 2.75966,-1.14537 1.04228,-0.02 1.05723,-0.0319 0.35986,-0.28663 -0.40018,-0.14616 -0.7276,-0.35757 -0.7276,-0.4698 0,-0.11223 1.63711,-0.28803 3.63802,-0.39068 2.45495,-0.12594 3.82982,-0.31134 4.22783,-0.57014 0.58494,-0.38035 1.55346,-1.91556 1.44896,-2.29676 -0.0299,-0.10914 0.0464,-0.19843 0.16961,-0.19843 0.52986,0 6.49431,-13.70954 7.82741,-17.99167 0.24917,-0.80037 0.55891,-1.69333 0.68832,-1.98438 0.1294,-0.29104 0.59198,-1.77932 1.02795,-3.30729 1.38474,-4.85324 3.1826,-9.82983 4.63584,-12.83229 1.98736,-4.10599 1.85044,-3.97944 3.43455,-3.17474 1.57545,0.80031 3.04039,0.84038 4.61425,0.12622 0.63436,-0.28784 1.18525,-0.52335 1.22419,-0.52335 0.2972,0 1.19432,2.84718 1.19432,3.79039 0,2.63364 -1.86783,8.17343 -5.10041,15.12732 -5.07171,10.91019 -6.37393,13.16268 -11.62507,20.10833 -3.45813,4.57404 -6.28829,7.65693 -7.68188,8.36789 -0.72853,0.37167 -2.10246,0.6472 -4.39944,0.88229 -1.83704,0.18802 -3.67525,0.4756 -4.08491,0.63906 -0.88787,0.3543 -2.73621,0.39365 -2.94081,0.0626 z m 22.39677,-20.1498 c 2.13403,-1.11823 2.68191,-1.57779 1.87584,-1.57343 -0.77301,0.004 -3.07077,1.19199 -3.7659,1.94677 -0.87737,0.95265 -0.49711,0.87754 1.89006,-0.37334 z m -53.844554,15.99996 c -0.771924,-0.66398 -2.321028,-1.17886 -5.547823,-1.84396 -2.621999,-0.54045 -3.63646,-1.313 -3.63646,-2.76932 0,-1.76245 0.07883,-1.82231 2.202712,-1.67235 2.085848,0.14728 3.092022,-0.11143 7.43833,-1.91256 2.711357,-1.1236 5.581697,-1.53977 5.847233,-0.84779 0.08432,0.21973 -0.270428,1.19822 -0.788321,2.17443 -0.51789,0.97622 -0.94162,2.0411 -0.94162,2.3664 0,1.18146 -0.798372,3.23825 -1.515134,3.90334 -0.403603,0.3745 -1.096192,0.80141 -1.539084,0.94869 -0.68734,0.22856 -0.909902,0.17776 -1.519833,-0.34688 z M 43.034232,157.57627 c -0.558143,-0.15768 -1.197184,-0.5768 -1.436605,-0.9422 -0.378609,-0.57783 -0.390336,-0.85687 -0.09606,-2.28571 0.640376,-3.10932 2.518874,-6.73405 4.381319,-8.45413 0.808238,-0.74646 5.35373,-3.31752 13.899404,-7.86191 5.896882,-3.13582 6.76335,-3.70635 9.657292,-6.35889 3.84865,-3.5276 4.129354,-3.69139 6.323552,-3.68966 2.587993,0.002 5.450406,0.77289 5.450406,1.46781 0,0.19072 -0.357187,0.6011 -0.79375,0.91196 -0.537649,0.38284 -0.796465,0.79415 -0.802164,1.27479 -0.0046,0.39027 -0.175045,0.92952 -0.378703,1.19832 -0.203658,0.26881 -0.305843,0.65668 -0.227079,0.86194 0.07877,0.20526 -0.04847,0.66575 -0.282755,1.02331 -0.23428,0.35756 -0.427789,0.92219 -0.430016,1.25473 -0.0066,0.97735 -0.343996,1.25303 -1.730098,1.41341 -2.21902,0.25676 -2.396527,0.33692 -3.768648,1.70184 -1.206897,1.20057 -1.446181,1.32583 -2.532769,1.32583 -0.659974,0 -1.506564,0.1397 -1.881312,0.31045 -0.374745,0.17074 -2.184672,2.16504 -4.022058,4.43177 -3.885184,4.79304 -8.101822,9.05378 -10.153185,10.25939 -2.925336,1.71925 -8.748347,2.84301 -11.176771,2.15695 z m 85.672018,-3.66481 c 0.26339,-0.29104 0.53842,-0.52917 0.61118,-0.52917 0.0728,0 -0.0832,0.23813 -0.3466,0.52917 -0.26339,0.29104 -0.53842,0.52916 -0.61118,0.52916 -0.0728,0 0.0832,-0.23812 0.3466,-0.52916 z m 6.43268,-2.82657 c 0.191,-0.0764 0.4192,-0.067 0.50712,0.0209 0.0879,0.0879 -0.0684,0.15045 -0.34726,0.13897 -0.30823,-0.0127 -0.37092,-0.0754 -0.15986,-0.15986 z m -66.162134,-2.39895 c -0.1534,-1.61741 0.316722,-2.72498 2.723179,-6.41557 1.036558,-1.58968 1.806895,-3.01614 1.711865,-3.1699 -0.266724,-0.43157 1.959644,-1.31624 3.328921,-1.32279 1.413167,-0.007 2.080308,-0.55831 2.112418,-1.74643 0.01148,-0.4251 0.07479,-0.64255 0.140663,-0.48322 0.08568,0.20725 0.663374,0.19238 2.029632,-0.0522 1.050422,-0.18806 2.743295,-0.35002 3.761941,-0.3599 1.297504,-0.0126 1.733246,-0.0948 1.455209,-0.27445 -0.574099,-0.37101 -2.29806,-0.32223 -4.673079,0.13224 -1.140587,0.21826 -2.103562,0.39685 -2.139942,0.39688 -0.03638,2e-5 -0.06615,-0.34858 -0.06615,-0.77467 0,-0.74806 0.05234,-0.78025 1.521354,-0.93583 0.836745,-0.0886 2.533385,-0.45587 3.770313,-0.81613 2.946349,-0.85814 3.886038,-0.85476 4.282506,0.0154 0.234077,0.51374 0.222967,0.81216 -0.04917,1.32065 -0.274807,0.51348 -0.284305,0.8046 -0.0435,1.33311 0.465357,1.02134 0.376727,1.91883 -0.221083,2.23877 -0.306742,0.16416 -0.529167,0.55399 -0.529167,0.92743 0,0.41512 -0.292574,0.85875 -0.822703,1.24746 -0.452486,0.33178 -0.925788,0.87113 -1.051785,1.19855 -0.204235,0.53074 -0.409149,0.59468 -1.889276,0.5895 -2.275086,-0.008 -4.655916,-1.13129 -4.694489,-2.21497 -0.0048,-0.13421 1.049517,-0.16274 2.438982,-0.066 1.819341,0.12667 2.323894,0.0965 1.966137,-0.11768 -0.264694,-0.15845 -1.51349,-0.36687 -2.775106,-0.46317 -1.816825,-0.13867 -2.310932,-0.26444 -2.376001,-0.60481 -0.119652,-0.62588 0.525458,-0.78613 3.837999,-0.9534 1.864974,-0.0942 2.907702,-0.24767 2.805536,-0.41297 -0.215186,-0.34818 -5.936219,-0.0677 -6.674094,0.32718 -0.305131,0.16331 -0.554784,0.51256 -0.554784,0.77612 0,0.736 0.772843,2.1182 1.360102,2.43249 0.433014,0.23175 0.467648,0.35208 0.195656,0.67981 -0.637481,0.76811 -10.366399,8.82529 -10.656408,8.82529 -0.05857,0 -0.160121,-0.56555 -0.225677,-1.25677 z m 46.318384,-12.41772 c 0.191,-0.0764 0.4192,-0.067 0.50712,0.0209 0.0879,0.0879 -0.0684,0.15046 -0.34727,0.13897 -0.30822,-0.0127 -0.37091,-0.0754 -0.15985,-0.15985 z m -2.92695,-0.25907 c 0.1819,-0.0734 0.47956,-0.0734 0.66146,0 0.1819,0.0734 0.0331,0.13345 -0.33073,0.13345 -0.3638,0 -0.51263,-0.0601 -0.33073,-0.13345 z m -3.30226,-0.27271 c 0.25743,-0.0671 0.61462,-0.0627 0.79375,0.01 0.17913,0.0725 -0.0315,0.12737 -0.46805,0.12197 -0.43657,-0.005 -0.58313,-0.0647 -0.3257,-0.13177 z M 65.78014,121.35546 c -2.514751,-0.4222 -3.949454,-1.11197 -5.475105,-2.63228 -1.468858,-1.46372 -3.168579,-4.42388 -3.168579,-5.51826 0,-0.30647 0.608661,-1.39143 1.35258,-2.41102 1.129437,-1.54798 1.322313,-1.9744 1.169119,-2.58477 -0.100904,-0.40203 -0.0986,-0.6461 0.0051,-0.54238 0.103722,0.10373 0.413131,0.0684 0.687573,-0.0785 0.365821,-0.19578 0.654687,-0.15799 1.082416,0.1416 0.68572,0.4803 1.879827,0.55003 1.730163,0.10104 -0.05639,-0.16919 -0.334206,-0.34132 -0.61736,-0.38251 -0.990071,-0.14405 -1.705457,-1.33435 -1.705457,-2.83764 0,-1.94969 1.09216,-3.44208 1.387674,-1.8962 0.08346,0.4366 0.0072,0.66146 -0.224431,0.66146 -0.408977,0 -1.023368,1.02182 -0.767961,1.27723 0.09547,0.0955 0.289621,-0.0338 0.431459,-0.28725 0.37419,-0.66864 0.713227,-0.56542 0.809331,0.24639 0.04605,0.38896 0.250603,0.76208 0.45457,0.82917 0.266878,0.0878 0.329457,-0.0363 0.223208,-0.44262 -0.0812,-0.31052 -0.05263,-0.56459 0.06349,-0.56459 0.116123,0 0.285382,0.29585 0.376134,0.65743 0.174784,0.69639 0.966801,1.03893 2.048264,0.88586 0.470847,-0.0666 0.681853,-0.32946 0.867326,-1.08027 0.162568,-0.65809 0.395557,-0.99218 0.691922,-0.99218 0.24575,0 0.760534,-0.24677 1.143961,-0.54837 0.565586,-0.44489 0.69714,-0.76943 0.69714,-1.7198 0,-1.15656 0.01146,-1.17142 0.902522,-1.17142 0.682993,0 1.069134,-0.19801 1.5875,-0.814048 0.376738,-0.447725 0.684978,-0.994093 0.684978,-1.214144 0,-0.295341 0.213135,-0.220752 0.814051,0.284885 0.926558,0.779648 1.633617,0.854062 2.721922,0.286472 0.416817,-0.217384 1.041895,-0.395245 1.389063,-0.395245 0.58642,0 0.631214,0.100256 0.631214,1.41274 0,1.26593 0.07174,1.44542 0.690356,1.72728 0.536702,0.24454 0.655286,0.44539 0.532781,0.90237 -0.08667,0.3233 -0.159205,1.05812 -0.161192,1.63292 -0.0028,0.81286 -0.07417,0.97455 -0.321112,0.72761 -0.45816,-0.45816 -2.8575,-0.41978 -2.8575,0.0457 0,0.24273 0.440761,0.40556 1.328735,0.49089 1.55163,0.14909 1.892538,0.3809 1.250537,0.85034 -0.254434,0.18605 -0.462605,0.59303 -0.462605,0.90441 0,0.31138 -0.152101,0.56615 -0.338003,0.56615 -0.599104,0 -1.514081,-0.80852 -1.514081,-1.33792 0,-0.28279 -0.136927,-0.51417 -0.304281,-0.51417 -0.222549,0 -0.255609,0.86127 -0.123071,3.20643 l 0.181208,3.20642 -1.199843,-0.17992 c -0.760749,-0.11409 -1.199846,-0.0806 -1.199846,0.0915 0,0.78318 2.795217,1.16276 3.080861,0.41838 0.08461,-0.22049 0.01312,-1.36322 -0.15885,-2.53939 -0.171977,-1.17616 -0.263118,-2.18805 -0.202533,-2.24864 0.06059,-0.0606 0.424838,0.13738 0.80945,0.43991 0.384614,0.30254 0.812967,0.47982 0.951899,0.39395 0.300189,-0.18553 -1.031107,3.84629 -1.703559,5.15922 -0.891352,1.74032 -2.114714,3.21916 -3.171614,3.83394 -0.908187,0.52828 -1.232212,0.58434 -2.251487,0.38954 -0.654844,-0.12515 -1.419654,-0.3162 -1.699581,-0.42456 -0.426693,-0.16518 -0.474969,-0.11477 -0.298693,0.31193 0.115644,0.27992 0.270267,1.07178 0.343601,1.75969 0.124471,1.16756 0.086,1.26874 -0.578427,1.52136 -0.78627,0.29894 -0.799523,0.29891 -2.616967,-0.006 z m 0.632285,-4.69828 c -1.187053,-0.93014 -2.236443,-1.96661 -3.802933,-3.75614 l -1.273839,-1.45521 0.612381,1.16861 c 0.802,1.53046 2.88653,3.80679 3.979262,4.3454 1.294326,0.63797 1.512147,0.50208 0.485129,-0.30266 z m 7.789657,-1.90406 c 0.09773,-0.15813 -0.229378,-0.26458 -0.813052,-0.26458 -0.537114,0 -1.377579,-0.24783 -1.867699,-0.55075 -1.053481,-0.65108 -1.197112,-0.25751 -0.193984,0.53155 0.73543,0.57849 2.580055,0.76058 2.874735,0.28378 z m -2.493764,-6.62517 c 0.393334,-0.2105 0.474482,-0.44365 0.345321,-0.99218 -0.245798,-1.04388 -0.629682,-1.35196 -0.629682,-0.50535 0,0.90599 -0.512429,0.92461 -1.778027,0.0646 -1.419439,-0.96453 -1.630365,-0.4947 -0.301776,0.67219 1.236364,1.08589 1.561262,1.19044 2.364164,0.76073 z m 0.773972,-3.26709 c 0,-0.4511 -2.406203,-1.55658 -3.140729,-1.44294 -0.918781,0.14214 -0.667279,0.58547 0.561041,0.98895 0.618464,0.20316 1.352244,0.52561 1.63062,0.71657 0.550783,0.37783 0.949068,0.26763 0.949068,-0.26258 z m 73.88547,15.31622 c 0.003,-0.58208 0.0571,-0.78905 0.12041,-0.45993 0.0633,0.32911 0.0609,0.80536 -0.005,1.05833 -0.0662,0.25297 -0.11801,-0.0163 -0.11507,-0.5984 z m -5.7569,-2.87579 c -0.23773,-0.36282 -0.67196,-1.29295 -0.96495,-2.06694 -0.58518,-1.54586 -1.16853,-2.33331 -1.72855,-2.33331 -0.65434,0 -0.69949,-0.79897 -0.0823,-1.45596 0.51019,-0.54307 0.62541,-1.04999 0.79376,-3.49227 0.14176,-2.05644 0.37554,-3.29642 0.83432,-4.4253 0.57988,-1.42684 1.28163,-2.23609 1.28163,-1.47796 0,0.16781 0.34045,0.80281 0.75654,1.41111 2.25468,3.29615 2.28676,4.88284 0.15825,7.82586 -0.83532,1.15498 -0.82049,2.03121 0.0632,3.7345 0.65424,1.26103 0.68167,1.43136 0.33073,2.05373 -0.52832,0.93692 -0.93532,1.00084 -1.44266,0.22654 z m 0.65448,-6.45077 c -0.005,-0.10914 -0.42146,-0.39174 -0.92604,-0.628 -0.76083,-0.35623 -0.91743,-0.36607 -0.91743,-0.0576 0,0.20457 0.2679,0.47962 0.59532,0.61123 0.74914,0.30112 1.25932,0.33152 1.24815,0.0744 z m 0.74299,-2.40155 c 0.16987,-0.50961 -1.69587,-1.17463 -2.33533,-0.8324 -0.6987,0.37394 -0.41405,0.78655 0.54262,0.78655 0.41939,0 0.83999,0.12535 0.93468,0.27855 0.20968,0.33927 0.71286,0.2028 0.85803,-0.2327 z m 14.89693,9.06023 c 0.0127,-0.30823 0.0754,-0.37092 0.15985,-0.15985 0.0764,0.19099 0.067,0.4192 -0.0209,0.50712 -0.0879,0.0879 -0.15045,-0.0684 -0.13897,-0.34727 z m 0.47453,-4.54201 c -0.32911,-0.41965 -0.31975,-0.42901 0.0999,-0.0999 0.44073,0.34564 0.58088,0.56292 0.36312,0.56292 -0.0549,0 -0.2633,-0.20836 -0.46302,-0.46302 z m -2.50493,-1.19063 -0.50403,-0.59531 0.59532,0.50403 c 0.32742,0.27721 0.59531,0.5451 0.59531,0.59531 0,0.21173 -0.21294,0.0554 -0.6866,-0.50403 z m -5.16799,-7.54062 c -0.3291,-0.41965 -0.31974,-0.42901 0.0999,-0.0999 0.25466,0.19972 0.46302,0.40808 0.46302,0.46302 0,0.21776 -0.21727,0.0776 -0.56292,-0.36312 z m -1.28916,-0.0505 c 0,-0.13694 0.1177,-0.32172 0.26155,-0.41062 0.14998,-0.0927 0.19434,0.0135 0.10399,0.24897 -0.1759,0.45837 -0.36554,0.54223 -0.36554,0.16165 z m -35.58646,-6.36562 c -0.73226,-0.18633 -0.74251,-0.204086 -0.13229,-0.229227 0.3638,-0.015 0.84005,0.08816 1.05833,0.229227 0.45031,0.29101 0.21761,0.29101 -0.92604,0 z m -3.41233,-0.749652 c -0.075,-0.121269 0.0319,-0.220488 0.23733,-0.220488 0.20548,0 0.31228,0.09922 0.23733,0.220488 -0.075,0.121267 -0.18175,0.220485 -0.23733,0.220485 -0.0556,0 -0.16238,-0.09922 -0.23733,-0.220485 z m 6.33405,-0.290399 c -0.0837,-0.135466 -0.0511,-0.308821 0.0726,-0.385236 0.12365,-0.07641 0.22481,0.03442 0.22481,0.246301 0,0.446133 -0.0834,0.485111 -0.29738,0.138935 z m -12.43542,-7.14375 c -0.0837,-0.135466 -0.0511,-0.308821 0.0726,-0.385236 0.12364,-0.07641 0.2248,0.03442 0.2248,0.246301 0,0.446132 -0.0834,0.485111 -0.29738,0.138935 z m -0.26458,-1.322916 c -0.17595,-0.284679 0.34191,-0.679305 0.57956,-0.441654 0.0873,0.08733 0.0129,0.158787 -0.16551,0.158787 -0.17836,0 -0.25071,0.119063 -0.16077,0.264584 0.0899,0.145521 0.10399,0.264583 0.0312,0.264583 -0.0728,0 -0.20079,-0.110836 -0.28451,-0.2463 z m 6.15679,-0.463606 c 0.191,-0.07643 0.41921,-0.06703 0.50712,0.02088 0.0879,0.08792 -0.0684,0.150452 -0.34726,0.138964 -0.30823,-0.0127 -0.37092,-0.07539 -0.15986,-0.159851 z m 3.75378,-0.08384 c 0,-0.145521 0.12609,-0.264583 0.2802,-0.264583 0.15411,0 0.20661,0.119062 0.11668,0.264583 -0.0899,0.145521 -0.21603,0.264583 -0.2802,0.264583 -0.0642,0 -0.11668,-0.119062 -0.11668,-0.264583 z m 3.38997,0.08384 c 0.191,-0.07643 0.41921,-0.06703 0.50712,0.02088 0.0879,0.08792 -0.0683,0.150452 -0.34726,0.138964 -0.30823,-0.0127 -0.37092,-0.07539 -0.15986,-0.159851 z m -0.40837,-2.119281 c 0.25743,-0.06708 0.61462,-0.06267 0.79375,0.0098 0.17913,0.07248 -0.0315,0.127362 -0.46806,0.12197 -0.43656,-0.0054 -0.58312,-0.06469 -0.32569,-0.131773 z m -7.28108,-0.785625 c 0.1819,-0.0734 0.47956,-0.0734 0.66146,0 0.1819,0.0734 0.0331,0.133454 -0.33073,0.133454 -0.3638,0 -0.51263,-0.06005 -0.33073,-0.133454 z m 8.21862,-0.0055 c 0.191,-0.07643 0.4192,-0.06703 0.50712,0.02088 0.0879,0.08792 -0.0683,0.150452 -0.34727,0.138964 -0.30822,-0.0127 -0.37091,-0.07539 -0.15985,-0.15985 z m -13.93153,-2.729685 c 0,-0.363802 0.0601,-0.51263 0.13345,-0.330729 0.0734,0.181901 0.0734,0.479557 0,0.661458 -0.0734,0.181901 -0.13345,0.03307 -0.13345,-0.330729 z m 16.91245,0.110244 c 0.0127,-0.308226 0.0754,-0.370919 0.15985,-0.159853 0.0764,0.190994 0.067,0.419198 -0.0209,0.507119 -0.0879,0.08792 -0.15045,-0.06835 -0.13896,-0.347266 z m -2.55957,-1.49934 -0.50403,-0.595312 0.59531,0.504029 c 0.32742,0.277214 0.59531,0.545105 0.59531,0.595312 0,0.211733 -0.21293,0.05542 -0.68659,-0.504029 z m -14.23511,0.110244 c -0.075,-0.121269 0.0318,-0.220487 0.23733,-0.220487 0.20548,0 0.31228,0.09922 0.23733,0.220487 -0.075,0.121267 -0.18175,0.220486 -0.23733,0.220486 -0.0556,0 -0.16238,-0.09922 -0.23733,-0.220486 z m 1.84298,-0.593322 c 0.25341,-0.280009 0.59111,-0.507286 0.75046,-0.505058 0.16158,0.0024 0.13345,0.10311 -0.0636,0.22802 -0.19434,0.123182 -0.3134,0.318368 -0.26459,0.433745 0.0488,0.115379 -0.1299,0.241871 -0.39713,0.281093 -0.46288,0.06794 -0.46407,0.04721 -0.0251,-0.4378 z m 13.58786,-1.236713 -0.64143,-0.727604 0.72761,0.641433 c 0.68005,0.599516 0.84894,0.813775 0.64143,0.813775 -0.0474,0 -0.37482,-0.327422 -0.72761,-0.727604 z m -1.30289,-1.256771 c 0,-0.218281 0.11533,-0.396875 0.25628,-0.396875 0.14096,0 0.18775,0.178594 0.10399,0.396875 -0.0838,0.218281 -0.19909,0.396875 -0.25628,0.396875 -0.0572,0 -0.10399,-0.178594 -0.10399,-0.396875 z m -3.94786,-7.430382 c 0.0127,-0.308225 0.0754,-0.37092 0.15985,-0.159853 0.0764,0.190996 0.067,0.4192 -0.0209,0.507119 -0.0879,0.08792 -0.15045,-0.06835 -0.13897,-0.347266 z m -1.11297,-1.896181 c -0.32911,-0.419644 -0.31975,-0.429002 0.0999,-0.0999 0.44073,0.345644 0.58088,0.562916 0.36312,0.562916 -0.0549,0 -0.2633,-0.208359 -0.46302,-0.463021 z"
         id="path306" />
      <path
         style="fill:#20386d;stroke-width:0.264583"
         d="m 92.636542,169.06792 c -0.449866,-0.0857 -0.568351,-0.23627 -0.440211,-0.55929 0.09643,-0.24308 0.351171,-1.27403 0.566084,-2.29101 0.214913,-1.01697 0.751562,-2.47967 1.192551,-3.25044 0.440992,-0.77077 0.734875,-1.57581 0.653077,-1.78898 -0.365999,-0.95377 -3.670383,-0.24264 -8.499711,1.82922 -2.028688,0.87034 -2.513542,0.88109 -2.513542,0.0557 0,-1.16797 0.994574,-3.85421 2.142289,-5.7861 1.554694,-2.61694 7.780277,-8.95758 11.0094,-11.21286 2.925458,-2.0432 7.541771,-6.22675 8.585181,-7.78034 0.46604,-0.69392 0.75271,-1.46923 0.75271,-2.03568 0,-0.82548 0.0601,-0.89982 0.6153,-0.76048 0.33841,0.0849 2.6899,0.33748 5.22552,0.5612 4.87176,0.42986 5.89034,0.63604 9.52796,1.92863 1.24954,0.44402 2.85688,0.89451 3.57187,1.00108 0.71499,0.10658 1.65717,0.45754 2.09373,0.7799 1.10693,0.81739 2.355,1.18837 3.99792,1.18837 1.62159,0 2.18305,-0.43717 3.03669,-2.36445 l 0.51992,-1.17383 1.29916,1.27963 c 1.5222,1.49931 2.88245,4.09221 3.08765,5.88567 0.1169,1.0217 -0.032,1.75565 -0.76723,3.78132 l -0.91229,2.51354 -1.73891,0.1952 c -3.27188,0.3673 -6.67985,2.10523 -7.65908,3.90584 -0.39733,0.73063 -0.47753,1.28895 -0.38006,2.64583 0.10416,1.45014 0.37005,2.19811 1.69577,4.77037 l 1.57223,3.05057 -0.61603,0.97336 c -0.33882,0.53536 -0.84772,1.09736 -1.13089,1.24891 -0.73746,0.39468 -3.37854,0.3347 -4.84404,-0.11001 -5.16256,-1.56659 -10.37226,-1.5738 -17.00456,-0.0236 -2.32833,0.54423 -5.24537,1.15612 -6.48229,1.35976 -2.097008,0.34523 -6.756178,0.4497 -8.156168,0.18288 z m 19.301508,-6.23301 c 4.23244,-2.02547 5.54249,-2.42122 8.03695,-2.42783 1.16417,-0.003 2.53338,0.083 3.04271,0.19141 l 0.92604,0.19701 -0.92604,-0.43137 c -2.54319,-1.18468 -6.12955,-0.63012 -10.78317,1.6674 -1.66348,0.82127 -3.75755,1.71312 -4.65348,1.98189 l -1.62898,0.48866 1.48806,-0.11338 c 1.10265,-0.084 2.26759,-0.48644 4.49791,-1.55379 z m -36.796171,4.94178 c -1.832877,-0.49266 -6.363756,-2.62898 -6.363756,-3.00053 0,-0.38363 0.09793,-0.36185 1.1415,0.25387 1.55022,0.91465 5.128258,2.09684 7.670454,2.53433 1.338061,0.23026 2.482448,0.46725 2.543082,0.52663 0.286221,0.28032 -3.716906,0.0282 -4.99128,-0.3143 z M 39.502117,161.0467 c -1.604403,-0.21514 -3.796911,-1.11086 -3.796911,-1.55117 0,-0.12431 0.45879,0.001 1.019534,0.27841 1.487451,0.73593 4.087837,1.08913 6.653383,0.9037 3.30812,-0.2391 4.819219,-0.7174 6.252588,-1.97911 0.676635,-0.5956 1.342552,-1.08291 1.479812,-1.08291 0.342501,0 -1.317707,2.06343 -1.919219,2.38535 -1.571958,0.84129 -6.914107,1.41785 -9.689187,1.04573 z m 9.564508,-19.30625 c -0.09591,-0.43666 -0.581536,-1.28127 -1.07918,-1.87691 -1.306759,-1.56409 -1.804503,-3.52283 -1.619771,-6.3742 0.24243,-3.74193 0.654238,-3.69224 0.61581,0.0743 -0.03751,3.67701 0.208758,4.70727 1.455113,6.08732 0.824195,0.91262 1.289526,1.8161 1.289526,2.50376 0,0.69496 -0.484516,0.39152 -0.661498,-0.41427 z m 97.529425,-21.66822 c -0.027,-1.03263 0.10321,-1.30605 1.1602,-2.43606 1.36216,-1.45626 1.44307,-1.9584 0.64275,-3.98884 -0.6472,-1.64195 -0.55542,-2.42572 0.56015,-4.78383 0.9238,-1.95272 1.01096,-3.34568 0.25231,-4.03225 -0.62146,-0.56242 -0.68095,-0.92604 -0.1515,-0.92604 0.20772,0 0.63495,0.32707 0.9494,0.72684 0.7145,0.90832 0.58124,2.01683 -0.53958,4.48876 -0.91761,2.02373 -0.93759,2.28574 -0.34939,4.5813 0.54969,2.14525 0.38276,2.86305 -1.01958,4.38442 -0.6713,0.72827 -1.16631,1.56407 -1.28353,2.16717 l -0.1908,0.98172 z m 10.68228,-4.0304 0.1822,-2.21475 -1.51092,-1.29983 c -2.2654,-1.94891 -3.00328,-3.98025 -2.08843,-5.74935 0.52074,-1.00701 0.82807,-0.78581 0.38716,0.27866 -0.20389,0.49222 -0.25742,1.214 -0.14292,1.92671 0.15663,0.97482 0.46666,1.40751 2.14361,2.99173 2.15238,2.03335 2.26886,2.36865 1.66113,4.78213 -0.51463,2.04379 -0.82948,1.68735 -0.63183,-0.7153 z m -91.351034,0.91801 c -1.092732,-0.53861 -3.177262,-2.81494 -3.979262,-4.3454 l -0.612381,-1.16861 1.273839,1.45521 c 1.56649,1.78953 2.61588,2.826 3.802933,3.75614 1.027018,0.80474 0.809197,0.94063 -0.485129,0.30266 z m 94.601824,-0.50131 c -0.0876,-0.14177 -0.19398,-0.91091 -0.23635,-1.70919 -0.0847,-1.59656 0.31396,-1.88659 0.61325,-0.4461 0.19439,0.9356 -0.0979,2.60679 -0.3769,2.15529 z m -89.201773,-1.98919 c -1.003128,-0.78906 -0.859497,-1.18263 0.193984,-0.53155 0.49012,0.30292 1.330585,0.55075 1.867699,0.55075 0.583674,0 0.910783,0.10645 0.813052,0.26458 -0.29468,0.4768 -2.139305,0.29471 -2.874735,-0.28378 z m 2.411714,-1.58949 c -0.869516,-0.50645 -0.5094,-0.81194 0.736825,-0.62505 l 1.199843,0.17992 -0.181208,-3.20642 c -0.132538,-2.34516 -0.09948,-3.20643 0.123071,-3.20643 0.167354,0 0.304281,0.23138 0.304281,0.51417 0,0.5294 0.914977,1.33792 1.514081,1.33792 0.185902,0 0.338003,-0.29766 0.338003,-0.66146 0,-0.3638 0.119062,-0.66146 0.264583,-0.66146 0.145521,0 0.266208,0.14883 0.268195,0.33073 0.0021,0.1819 0.06663,0.56885 0.14365,0.8599 0.09359,0.35363 -0.04325,0.6421 -0.412506,0.86964 -0.473425,0.29172 -0.651325,0.26278 -1.242375,-0.20214 -0.379407,-0.29845 -0.7394,-0.49305 -0.799986,-0.43247 -0.06059,0.0606 0.03056,1.07248 0.202533,2.24864 0.171979,1.17617 0.243461,2.3189 0.15885,2.53939 -0.178424,0.46497 -1.888106,0.54015 -2.61784,0.11512 z m 66.278129,-2.10372 c -0.32742,-0.13161 -0.59532,-0.40666 -0.59532,-0.61123 0,-0.30845 0.1566,-0.29861 0.91743,0.0576 1.40073,0.65586 1.12239,1.13423 -0.32211,0.55361 z m 1.13311,-2.09446 c -0.0947,-0.1532 -0.51529,-0.27855 -0.93468,-0.27855 -0.95667,0 -1.24132,-0.41261 -0.54262,-0.78655 0.63946,-0.34223 2.5052,0.32279 2.33533,0.8324 -0.14517,0.4355 -0.64835,0.57197 -0.85803,0.2327 z m -71.806146,-1.31445 c -1.328589,-1.16689 -1.117663,-1.63672 0.301776,-0.67219 1.265598,0.86 1.778027,0.84138 1.778027,-0.0646 0,-0.84661 0.383884,-0.53853 0.629682,0.50535 0.129161,0.54853 0.04801,0.78168 -0.345321,0.99218 -0.802902,0.42971 -1.1278,0.32516 -2.364164,-0.76073 z m -7.910885,0.36267 c -0.405974,-0.28435 -0.725663,-0.3334 -1.051058,-0.16125 -0.819496,0.43355 -2.279573,-0.23196 -2.58554,-1.17851 -0.146206,-0.4523 -0.668411,-1.16111 -1.160457,-1.57514 -1.247317,-1.04955 -1.728573,-2.28181 -1.345025,-3.44397 0.163602,-0.49572 0.470675,-0.99825 0.682384,-1.11673 0.333782,-0.18679 0.327043,-0.353944 -0.05072,-1.258057 -0.573458,-1.372475 -0.394393,-4.080732 0.368604,-5.574932 0.702072,-1.374883 1.918724,-2.409952 3.091307,-2.629929 0.599615,-0.112488 1.139574,-0.474157 1.590466,-1.065308 0.848876,-1.112935 1.339721,-1.37904 3.166682,-1.71677 1.591733,-0.294249 3.357835,0.01857 4.163584,0.737489 0.404661,0.36105 0.494945,0.359235 0.871715,-0.01754 0.61518,-0.61518 2.330018,-1.057328 3.347701,-0.863161 2.573155,0.490942 4.718286,2.222373 4.720887,3.810442 5.29e-4,0.341183 0.202297,0.668306 0.46401,0.752406 1.432634,0.460367 1.843775,0.723861 2.400829,1.538653 0.50093,0.732697 0.602925,1.192702 0.550304,2.481977 -0.04977,1.219465 0.0424,1.689579 0.401707,2.048883 0.580615,0.580615 0.389691,1.813297 -0.413229,2.667967 -0.652132,0.69416 -1.443406,0.8761 -2.278153,0.52383 -0.511664,-0.21592 -0.595312,-0.44973 -0.595312,-1.66396 0,-1.312482 -0.04479,-1.412738 -0.631214,-1.412738 -0.347168,0 -0.972246,0.177861 -1.389063,0.395245 -1.088305,0.56759 -1.795364,0.493176 -2.721922,-0.286472 -0.600916,-0.505637 -0.814051,-0.580226 -0.814051,-0.284885 0,0.220051 -0.30824,0.766419 -0.684978,1.214144 -0.518366,0.616036 -0.904507,0.814046 -1.5875,0.814046 -0.891077,0 -0.902522,0.0149 -0.902522,1.17142 0,0.95037 -0.131554,1.27491 -0.69714,1.7198 -0.383427,0.3016 -0.898211,0.54837 -1.143961,0.54837 -0.296365,0 -0.529354,0.33409 -0.691922,0.99218 -0.185473,0.75081 -0.396479,1.01362 -0.867326,1.08027 -1.081463,0.15307 -1.87348,-0.18947 -2.048264,-0.88586 -0.09075,-0.36158 -0.260011,-0.65743 -0.376134,-0.65743 -0.11612,0 -0.14469,0.25407 -0.06349,0.56459 0.106249,0.4063 0.04367,0.53039 -0.223208,0.44262 -0.203967,-0.0671 -0.408524,-0.44021 -0.45457,-0.82917 -0.0961,-0.81181 -0.435141,-0.91503 -0.809331,-0.24639 -0.141838,0.25345 -0.335992,0.38271 -0.431459,0.28725 -0.255407,-0.25541 0.358984,-1.27723 0.767961,-1.27723 0.231598,0 0.307891,-0.22486 0.224431,-0.66146 -0.295514,-1.54588 -1.387674,-0.0535 -1.387674,1.8962 0,1.50329 0.715386,2.69359 1.705449,2.83764 0.283154,0.0412 0.560967,0.21332 0.61736,0.38251 0.149664,0.44899 -1.044443,0.37926 -1.730163,-0.10104 z m 2.172406,-8.464414 c 0.25917,-0.620281 0.685596,-1.058693 1.265367,-1.300938 0.611061,-0.255317 0.977638,-0.65069 1.21698,-1.312579 0.340064,-0.94043 1.260655,-1.47401 1.881312,-1.090422 0.153792,0.09505 0.411396,0.09138 0.572453,-0.0081 0.204134,-0.126162 0.1841,-0.249875 -0.06615,-0.40844 -1.086321,-0.68834 -3.137101,0.294484 -3.137101,1.50342 0,0.379117 -0.154287,0.642255 -0.376574,0.642255 -0.753771,0 -2.004676,1.335464 -2.004676,2.140186 0,1.016022 0.173241,0.971852 0.648385,-0.165333 z m -1.971302,-1.677874 c 0,-0.602604 0.418563,-0.959696 1.399884,-1.194295 0.420545,-0.100536 0.664393,-0.29632 0.566447,-0.454794 -0.218004,-0.352743 -1.419911,-0.06434 -2.032477,0.48769 -0.49448,0.445617 -0.639588,1.65817 -0.198437,1.65817 0.145521,0 0.264583,-0.223546 0.264583,-0.496771 z m 17.220415,-1.957599 c -0.288796,-0.759584 -1.017244,-1.249796 -1.857188,-1.249796 -0.81249,0 -0.661839,0.480753 0.181044,0.577739 0.528003,0.06075 0.831858,0.320603 1.107636,0.947229 0.440907,1.001834 0.958731,0.751194 0.568508,-0.275172 z m -2.073019,9.933557 c -0.75642,-0.0681 -1.124479,-0.2262 -1.124479,-0.48294 0,-0.48264 2.385465,-0.5362 2.8575,-0.0642 0.453763,0.45376 0.392062,0.74827 -0.145521,0.6946 -0.254661,-0.0254 -0.969036,-0.0918 -1.5875,-0.1475 z m -5.248547,-0.44012 c -0.278376,-0.19096 -1.012156,-0.51341 -1.63062,-0.71657 -1.22832,-0.40348 -1.479822,-0.84681 -0.561041,-0.98895 0.734526,-0.11364 3.140729,0.99184 3.140729,1.44294 0,0.53021 -0.398285,0.64041 -0.949068,0.26258 z m 39.780388,-7.302515 c -0.77871,-0.234474 -2.5834,-1.281983 -2.5834,-1.499502 0,-0.07276 0.38695,0.106563 0.85989,0.398497 2.16544,1.336654 4.07783,1.29944 6.16957,-0.120055 0.53354,-0.362072 1.02657,-0.601816 1.09563,-0.532765 0.20126,0.201263 -1.86598,1.475232 -2.85331,1.758394 -1.0464,0.300104 -1.6801,0.299027 -2.68838,-0.0046 z m 0.41055,-3.780824 c -0.49758,-0.276683 -0.32221,-0.321353 1.26163,-0.321353 1.53647,0 1.76502,0.05449 1.38724,0.330729 -0.56909,0.416129 -1.89207,0.411446 -2.64887,-0.0094 z m 0.77636,-2.480956 c -0.6537,-0.263771 -0.31287,-0.51018 0.56406,-0.407802 1.1165,0.130344 1.36035,-0.233805 0.83582,-1.248143 -0.58507,-1.131393 -0.50113,-1.368028 0.12246,-0.345244 0.66252,1.086625 0.66656,1.554578 0.0164,1.902526 -0.54065,0.289343 -0.99413,0.318421 -1.53875,0.09866 z m -8.96126,-2.081247 c -0.67505,-0.675047 -0.73428,-1.229487 -0.14371,-1.345165 0.17644,-0.03456 0.2114,-0.0065 0.0777,0.0623 -0.39322,0.202398 -0.0212,1.126728 0.52303,1.299453 0.27534,0.08739 0.5006,0.269923 0.5006,0.405638 0,0.39814 -0.24548,0.289899 -0.95761,-0.422222 z m 4.24826,-1.21453 c -0.77435,-0.822248 -0.77476,-0.824429 -0.11565,-0.615291 0.36381,0.115435 1.30741,0.19776 2.09689,0.182946 l 1.43543,-0.02693 -0.77397,0.632709 c -1.04402,0.853471 -1.71722,0.809291 -2.6427,-0.173432 z m 7.66457,0.135525 -0.76876,-0.689645 0.96324,0.139145 c 0.52977,0.07653 1.39298,0.04222 1.91823,-0.07624 0.52524,-0.118462 0.95499,-0.162708 0.95499,-0.09832 0,0.304141 -1.45194,1.414711 -1.84956,1.414711 -0.24716,0 -0.79532,-0.310341 -1.21814,-0.689647 z m -2.20308,-0.258443 c 0.0127,-0.308226 0.0754,-0.370919 0.15985,-0.159853 0.0764,0.190995 0.067,0.419198 -0.0209,0.507119 -0.0879,0.08792 -0.15045,-0.06835 -0.13897,-0.347266 z m -0.26458,-1.058333 c 0.0127,-0.308226 0.0754,-0.370919 0.15985,-0.159853 0.0764,0.190995 0.067,0.419198 -0.0209,0.507119 -0.0879,0.08792 -0.15045,-0.06835 -0.13896,-0.347266 z m -6.10631,-1.138245 c 0,-0.661678 2.75012,-1.237107 3.87268,-0.810311 1.11122,0.422487 0.71044,0.814237 -0.76382,0.746602 -0.76399,-0.03505 -1.77602,0.02711 -2.24896,0.138139 -0.55005,0.129129 -0.8599,0.102309 -0.8599,-0.07443 z m 10.45105,-0.0567 c -0.43657,-0.135004 -1.24024,-0.173837 -1.78594,-0.08629 -1.17384,0.188309 -1.36755,-0.286896 -0.28477,-0.698569 0.98128,-0.373081 3.7905,0.251923 3.7905,0.843325 0,0.287668 -0.67468,0.264734 -1.71979,-0.05846 z M 102.99843,84.43281 c -0.63689,-1.471372 -0.54839,-2.731501 0.27803,-3.958807 2.09718,-3.1145 2.32501,-3.408456 2.14113,-2.762547 -0.10357,0.363802 -0.63695,1.256771 -1.1853,1.984375 -1.32404,1.756873 -1.4379,2.247162 -0.92871,3.998744 0.51105,1.757931 0.32796,2.20087 -0.30515,0.738235 z m 16.3067,-2.093701 c -0.21366,-0.219686 -0.78648,-0.71583 -1.27295,-1.102545 -0.48647,-0.386713 -1.17509,-1.163455 -1.53027,-1.726095 -0.35518,-0.562639 -1.1135,-1.346417 -1.68516,-1.741726 -1.39335,-0.96352 -1.34615,-1.336487 0.065,-0.513814 0.61846,0.360545 1.57719,1.29537 2.13049,2.077386 0.55331,0.782018 1.41651,1.633053 1.91823,1.891191 0.57381,0.29523 0.91222,0.6633 0.91222,0.992188 0,0.627877 -0.0384,0.636693 -0.53758,0.123415 z m -15.07284,-0.46776 c 0,-0.234421 0.30079,-0.76028 0.66842,-1.168577 l 0.66842,-0.742357 -0.58393,1.058333 c -0.74564,1.351412 -0.75291,1.359651 -0.75291,0.852601 z m 13.90133,-2.503543 c -0.36969,-0.398696 -0.66854,-0.964243 -0.66412,-1.256771 0.008,-0.531158 0.008,-0.531161 0.3,-0.0027 0.16057,0.291041 0.59595,0.856588 0.9675,1.256771 0.37155,0.400182 0.53902,0.727604 0.37217,0.727604 -0.16686,0 -0.60585,-0.326206 -0.97555,-0.724901 z m -8.21279,-6.828721 c 0.43656,-0.198006 1.09141,-0.367205 1.45521,-0.375997 0.99959,-0.02416 1.41111,-0.404472 1.41111,-1.304107 0,-0.894331 -0.59046,-1.692775 -1.80798,-2.444835 l -0.79375,-0.490295 0.6781,-9.79e-4 c 1.40383,-0.002 2.90388,2.45659 2.27149,3.723065 -0.30474,0.610303 -0.98073,0.866524 -2.94959,1.117995 l -1.05834,0.135175 0.79375,-0.360012 z m 0.78495,-1.839087 c -0.12264,-0.291042 -0.40896,-0.674208 -0.63626,-0.851482 -0.35922,-0.280158 -0.33432,-0.323415 0.19034,-0.330729 0.65476,-0.0091 0.96258,0.475786 0.78263,1.232901 -0.10506,0.442035 -0.13071,0.438175 -0.33671,-0.05069 z"
         id="path304" />
    </g>
  </g>
</svg>
